G04 #@! TF.GenerationSoftware,KiCad,Pcbnew,(5.1.5-0-10_14)*
G04 #@! TF.CreationDate,2020-11-20T10:25:49+01:00*
G04 #@! TF.ProjectId,6502-bb,36353032-2d62-4622-9e6b-696361645f70,rev?*
G04 #@! TF.SameCoordinates,Original*
G04 #@! TF.FileFunction,Legend,Top*
G04 #@! TF.FilePolarity,Positive*
%FSLAX46Y46*%
G04 Gerber Fmt 4.6, Leading zero omitted, Abs format (unit mm)*
G04 Created by KiCad (PCBNEW (5.1.5-0-10_14)) date 2020-11-20 10:25:49*
%MOMM*%
%LPD*%
G04 APERTURE LIST*
%ADD10C,0.120000*%
%ADD11C,0.150000*%
G04 APERTURE END LIST*
D10*
X78740000Y-130810000D02*
X78740000Y-57150000D01*
X76200000Y-57150000D02*
X76200000Y-130810000D01*
D11*
X78240000Y-56006904D02*
X78192380Y-56102142D01*
X78192380Y-56245000D01*
X78240000Y-56387857D01*
X78335238Y-56483095D01*
X78430476Y-56530714D01*
X78620952Y-56578333D01*
X78763809Y-56578333D01*
X78954285Y-56530714D01*
X79049523Y-56483095D01*
X79144761Y-56387857D01*
X79192380Y-56245000D01*
X79192380Y-56149761D01*
X79144761Y-56006904D01*
X79097142Y-55959285D01*
X78763809Y-55959285D01*
X78763809Y-56149761D01*
X79192380Y-55530714D02*
X78192380Y-55530714D01*
X79192380Y-54959285D01*
X78192380Y-54959285D01*
X79192380Y-54483095D02*
X78192380Y-54483095D01*
X78192380Y-54245000D01*
X78240000Y-54102142D01*
X78335238Y-54006904D01*
X78430476Y-53959285D01*
X78620952Y-53911666D01*
X78763809Y-53911666D01*
X78954285Y-53959285D01*
X79049523Y-54006904D01*
X79144761Y-54102142D01*
X79192380Y-54245000D01*
X79192380Y-54483095D01*
X75652380Y-55435476D02*
X75652380Y-55911666D01*
X76128571Y-55959285D01*
X76080952Y-55911666D01*
X76033333Y-55816428D01*
X76033333Y-55578333D01*
X76080952Y-55483095D01*
X76128571Y-55435476D01*
X76223809Y-55387857D01*
X76461904Y-55387857D01*
X76557142Y-55435476D01*
X76604761Y-55483095D01*
X76652380Y-55578333D01*
X76652380Y-55816428D01*
X76604761Y-55911666D01*
X76557142Y-55959285D01*
X75652380Y-55102142D02*
X76652380Y-54768809D01*
X75652380Y-54435476D01*
D10*
X113030000Y-59690000D02*
X113030000Y-54610000D01*
X153670000Y-59690000D02*
X113030000Y-59690000D01*
X113030000Y-54610000D02*
X153670000Y-54610000D01*
X184150000Y-133350000D02*
X163830000Y-133350000D01*
X184150000Y-128270000D02*
X184150000Y-133350000D01*
X163830000Y-128270000D02*
X184150000Y-128270000D01*
X163830000Y-133350000D02*
X163830000Y-128270000D01*
X133350000Y-133350000D02*
X113030000Y-133350000D01*
X133350000Y-128270000D02*
X133350000Y-133350000D01*
X115570000Y-128270000D02*
X133350000Y-128270000D01*
X113030000Y-128270000D02*
X115570000Y-128270000D01*
X113030000Y-133350000D02*
X113030000Y-128270000D01*
D11*
X131532380Y-128728214D02*
X131532380Y-129204404D01*
X132008571Y-129252023D01*
X131960952Y-129204404D01*
X131913333Y-129109166D01*
X131913333Y-128871071D01*
X131960952Y-128775833D01*
X132008571Y-128728214D01*
X132103809Y-128680595D01*
X132341904Y-128680595D01*
X132437142Y-128728214D01*
X132484761Y-128775833D01*
X132532380Y-128871071D01*
X132532380Y-129109166D01*
X132484761Y-129204404D01*
X132437142Y-129252023D01*
X131532380Y-128394880D02*
X132532380Y-128061547D01*
X131532380Y-127728214D01*
X129040000Y-128680595D02*
X128992380Y-128775833D01*
X128992380Y-128918690D01*
X129040000Y-129061547D01*
X129135238Y-129156785D01*
X129230476Y-129204404D01*
X129420952Y-129252023D01*
X129563809Y-129252023D01*
X129754285Y-129204404D01*
X129849523Y-129156785D01*
X129944761Y-129061547D01*
X129992380Y-128918690D01*
X129992380Y-128823452D01*
X129944761Y-128680595D01*
X129897142Y-128632976D01*
X129563809Y-128632976D01*
X129563809Y-128823452D01*
X129992380Y-128204404D02*
X128992380Y-128204404D01*
X129992380Y-127632976D01*
X128992380Y-127632976D01*
X129992380Y-127156785D02*
X128992380Y-127156785D01*
X128992380Y-126918690D01*
X129040000Y-126775833D01*
X129135238Y-126680595D01*
X129230476Y-126632976D01*
X129420952Y-126585357D01*
X129563809Y-126585357D01*
X129754285Y-126632976D01*
X129849523Y-126680595D01*
X129944761Y-126775833D01*
X129992380Y-126918690D01*
X129992380Y-127156785D01*
X127357142Y-128632976D02*
X127404761Y-128680595D01*
X127452380Y-128823452D01*
X127452380Y-128918690D01*
X127404761Y-129061547D01*
X127309523Y-129156785D01*
X127214285Y-129204404D01*
X127023809Y-129252023D01*
X126880952Y-129252023D01*
X126690476Y-129204404D01*
X126595238Y-129156785D01*
X126500000Y-129061547D01*
X126452380Y-128918690D01*
X126452380Y-128823452D01*
X126500000Y-128680595D01*
X126547619Y-128632976D01*
X127452380Y-127728214D02*
X127452380Y-128204404D01*
X126452380Y-128204404D01*
X127452380Y-127394880D02*
X126452380Y-127394880D01*
X127452380Y-126823452D02*
X126880952Y-127252023D01*
X126452380Y-126823452D02*
X127023809Y-127394880D01*
X124912380Y-129204404D02*
X123912380Y-129204404D01*
X124912380Y-128156785D02*
X124436190Y-128490119D01*
X124912380Y-128728214D02*
X123912380Y-128728214D01*
X123912380Y-128347261D01*
X123960000Y-128252023D01*
X124007619Y-128204404D01*
X124102857Y-128156785D01*
X124245714Y-128156785D01*
X124340952Y-128204404D01*
X124388571Y-128252023D01*
X124436190Y-128347261D01*
X124436190Y-128728214D01*
X125007619Y-127061547D02*
X124960000Y-127156785D01*
X124864761Y-127252023D01*
X124721904Y-127394880D01*
X124674285Y-127490119D01*
X124674285Y-127585357D01*
X124912380Y-127537738D02*
X124864761Y-127632976D01*
X124769523Y-127728214D01*
X124579047Y-127775833D01*
X124245714Y-127775833D01*
X124055238Y-127728214D01*
X123960000Y-127632976D01*
X123912380Y-127537738D01*
X123912380Y-127347261D01*
X123960000Y-127252023D01*
X124055238Y-127156785D01*
X124245714Y-127109166D01*
X124579047Y-127109166D01*
X124769523Y-127156785D01*
X124864761Y-127252023D01*
X124912380Y-127347261D01*
X124912380Y-127537738D01*
X122372380Y-128632976D02*
X121896190Y-128966309D01*
X122372380Y-129204404D02*
X121372380Y-129204404D01*
X121372380Y-128823452D01*
X121420000Y-128728214D01*
X121467619Y-128680595D01*
X121562857Y-128632976D01*
X121705714Y-128632976D01*
X121800952Y-128680595D01*
X121848571Y-128728214D01*
X121896190Y-128823452D01*
X121896190Y-129204404D01*
X121372380Y-128299642D02*
X122372380Y-128061547D01*
X121658095Y-127871071D01*
X122372380Y-127680595D01*
X121372380Y-127442500D01*
X119832380Y-128632976D02*
X119356190Y-128966309D01*
X119832380Y-129204404D02*
X118832380Y-129204404D01*
X118832380Y-128823452D01*
X118880000Y-128728214D01*
X118927619Y-128680595D01*
X119022857Y-128632976D01*
X119165714Y-128632976D01*
X119260952Y-128680595D01*
X119308571Y-128728214D01*
X119356190Y-128823452D01*
X119356190Y-129204404D01*
X119308571Y-128204404D02*
X119308571Y-127871071D01*
X119832380Y-127728214D02*
X119832380Y-128204404D01*
X118832380Y-128204404D01*
X118832380Y-127728214D01*
X119784761Y-127347261D02*
X119832380Y-127204404D01*
X119832380Y-126966309D01*
X119784761Y-126871071D01*
X119737142Y-126823452D01*
X119641904Y-126775833D01*
X119546666Y-126775833D01*
X119451428Y-126823452D01*
X119403809Y-126871071D01*
X119356190Y-126966309D01*
X119308571Y-127156785D01*
X119260952Y-127252023D01*
X119213333Y-127299642D01*
X119118095Y-127347261D01*
X119022857Y-127347261D01*
X118927619Y-127299642D01*
X118880000Y-127252023D01*
X118832380Y-127156785D01*
X118832380Y-126918690D01*
X118880000Y-126775833D01*
X117197142Y-128632976D02*
X117244761Y-128680595D01*
X117292380Y-128823452D01*
X117292380Y-128918690D01*
X117244761Y-129061547D01*
X117149523Y-129156785D01*
X117054285Y-129204404D01*
X116863809Y-129252023D01*
X116720952Y-129252023D01*
X116530476Y-129204404D01*
X116435238Y-129156785D01*
X116340000Y-129061547D01*
X116292380Y-128918690D01*
X116292380Y-128823452D01*
X116340000Y-128680595D01*
X116387619Y-128632976D01*
X117244761Y-128252023D02*
X117292380Y-128109166D01*
X117292380Y-127871071D01*
X117244761Y-127775833D01*
X117197142Y-127728214D01*
X117101904Y-127680595D01*
X117006666Y-127680595D01*
X116911428Y-127728214D01*
X116863809Y-127775833D01*
X116816190Y-127871071D01*
X116768571Y-128061547D01*
X116720952Y-128156785D01*
X116673333Y-128204404D01*
X116578095Y-128252023D01*
X116482857Y-128252023D01*
X116387619Y-128204404D01*
X116340000Y-128156785D01*
X116292380Y-128061547D01*
X116292380Y-127823452D01*
X116340000Y-127680595D01*
D10*
X133350000Y-59055000D02*
X133350000Y-54610000D01*
D11*
X134272976Y-54141666D02*
X134749166Y-54141666D01*
X134177738Y-54427380D02*
X134511071Y-53427380D01*
X134844404Y-54427380D01*
X135082500Y-53427380D02*
X135749166Y-53427380D01*
X135320595Y-54427380D01*
X131732976Y-54141666D02*
X132209166Y-54141666D01*
X131637738Y-54427380D02*
X131971071Y-53427380D01*
X132304404Y-54427380D01*
X132780595Y-53855952D02*
X132685357Y-53808333D01*
X132637738Y-53760714D01*
X132590119Y-53665476D01*
X132590119Y-53617857D01*
X132637738Y-53522619D01*
X132685357Y-53475000D01*
X132780595Y-53427380D01*
X132971071Y-53427380D01*
X133066309Y-53475000D01*
X133113928Y-53522619D01*
X133161547Y-53617857D01*
X133161547Y-53665476D01*
X133113928Y-53760714D01*
X133066309Y-53808333D01*
X132971071Y-53855952D01*
X132780595Y-53855952D01*
X132685357Y-53903571D01*
X132637738Y-53951190D01*
X132590119Y-54046428D01*
X132590119Y-54236904D01*
X132637738Y-54332142D01*
X132685357Y-54379761D01*
X132780595Y-54427380D01*
X132971071Y-54427380D01*
X133066309Y-54379761D01*
X133113928Y-54332142D01*
X133161547Y-54236904D01*
X133161547Y-54046428D01*
X133113928Y-53951190D01*
X133066309Y-53903571D01*
X132971071Y-53855952D01*
X183332380Y-129839404D02*
X182332380Y-129839404D01*
X182332380Y-129601309D01*
X182380000Y-129458452D01*
X182475238Y-129363214D01*
X182570476Y-129315595D01*
X182760952Y-129267976D01*
X182903809Y-129267976D01*
X183094285Y-129315595D01*
X183189523Y-129363214D01*
X183284761Y-129458452D01*
X183332380Y-129601309D01*
X183332380Y-129839404D01*
X182332380Y-128648928D02*
X182332380Y-128553690D01*
X182380000Y-128458452D01*
X182427619Y-128410833D01*
X182522857Y-128363214D01*
X182713333Y-128315595D01*
X182951428Y-128315595D01*
X183141904Y-128363214D01*
X183237142Y-128410833D01*
X183284761Y-128458452D01*
X183332380Y-128553690D01*
X183332380Y-128648928D01*
X183284761Y-128744166D01*
X183237142Y-128791785D01*
X183141904Y-128839404D01*
X182951428Y-128887023D01*
X182713333Y-128887023D01*
X182522857Y-128839404D01*
X182427619Y-128791785D01*
X182380000Y-128744166D01*
X182332380Y-128648928D01*
X165552380Y-129839404D02*
X164552380Y-129839404D01*
X164552380Y-129601309D01*
X164600000Y-129458452D01*
X164695238Y-129363214D01*
X164790476Y-129315595D01*
X164980952Y-129267976D01*
X165123809Y-129267976D01*
X165314285Y-129315595D01*
X165409523Y-129363214D01*
X165504761Y-129458452D01*
X165552380Y-129601309D01*
X165552380Y-129839404D01*
X164552380Y-128934642D02*
X164552380Y-128267976D01*
X165552380Y-128696547D01*
D10*
X184150000Y-131445000D02*
X184150000Y-128905000D01*
X162560000Y-131445000D02*
X162560000Y-128905000D01*
D11*
X113317976Y-54141666D02*
X113794166Y-54141666D01*
X113222738Y-54427380D02*
X113556071Y-53427380D01*
X113889404Y-54427380D01*
X114746547Y-54427380D02*
X114175119Y-54427380D01*
X114460833Y-54427380D02*
X114460833Y-53427380D01*
X114365595Y-53570238D01*
X114270357Y-53665476D01*
X114175119Y-53713095D01*
X115651309Y-53427380D02*
X115175119Y-53427380D01*
X115127500Y-53903571D01*
X115175119Y-53855952D01*
X115270357Y-53808333D01*
X115508452Y-53808333D01*
X115603690Y-53855952D01*
X115651309Y-53903571D01*
X115698928Y-53998809D01*
X115698928Y-54236904D01*
X115651309Y-54332142D01*
X115603690Y-54379761D01*
X115508452Y-54427380D01*
X115270357Y-54427380D01*
X115175119Y-54379761D01*
X115127500Y-54332142D01*
X152052976Y-54141666D02*
X152529166Y-54141666D01*
X151957738Y-54427380D02*
X152291071Y-53427380D01*
X152624404Y-54427380D01*
X153148214Y-53427380D02*
X153243452Y-53427380D01*
X153338690Y-53475000D01*
X153386309Y-53522619D01*
X153433928Y-53617857D01*
X153481547Y-53808333D01*
X153481547Y-54046428D01*
X153433928Y-54236904D01*
X153386309Y-54332142D01*
X153338690Y-54379761D01*
X153243452Y-54427380D01*
X153148214Y-54427380D01*
X153052976Y-54379761D01*
X153005357Y-54332142D01*
X152957738Y-54236904D01*
X152910119Y-54046428D01*
X152910119Y-53808333D01*
X152957738Y-53617857D01*
X153005357Y-53522619D01*
X153052976Y-53475000D01*
X153148214Y-53427380D01*
D10*
X113030000Y-57785000D02*
X113030000Y-54610000D01*
X153670000Y-57785000D02*
X153670000Y-54610000D01*
M02*
