M48
; DRILL file {KiCad (5.1.5-0-10_14)} date Friday, 20 November 2020 at 10:26:42
; FORMAT={-:-/ absolute / inch / decimal}
; #@! TF.CreationDate,2020-11-20T10:26:42+01:00
; #@! TF.GenerationSoftware,Kicad,Pcbnew,(5.1.5-0-10_14)
FMAT,2
INCH
T1C0.0118
T2C0.0157
T3C0.0276
T4C0.0315
T5C0.0394
T6C0.0433
%
G90
G05
T1
X3.025Y-2.25
X3.025Y-2.875
X3.725Y-2.775
X3.775Y-2.8
X3.8Y-2.275
X3.8Y-2.675
X3.8Y-3.4
X3.825Y-2.3
X3.975Y-2.65
X4.0Y-2.625
X4.025Y-2.6
X4.05Y-2.575
X4.075Y-2.55
X4.1Y-2.525
X4.125Y-2.5
X4.15Y-2.475
X4.175Y-2.45
X4.2Y-2.425
X4.225Y-2.4
X4.25Y-2.375
X4.25Y-4.875
X4.275Y-2.35
X4.275Y-4.9
X4.3Y-2.325
X4.3Y-4.925
X4.325Y-2.3
X4.325Y-4.95
X4.35Y-2.275
X4.35Y-4.975
X4.375Y-5.0
X4.4Y-5.025
X4.425Y-2.675
X4.425Y-5.05
X4.45Y-4.825
X4.45Y-5.075
X4.5Y-2.3
X4.5Y-2.8
X4.6Y-5.075
X4.625Y-2.75
X4.65Y-2.25
X4.7Y-2.325
X4.8Y-2.35
X4.8Y-4.675
X4.9Y-2.375
X4.9Y-4.85
X4.925Y-2.3
X4.975Y-2.35
X4.975Y-4.925
X5.0Y-2.4
X5.0Y-2.475
X5.0Y-4.9
X5.025Y-2.5
X5.025Y-4.875
X5.05Y-2.525
X5.05Y-4.7
X5.075Y-2.55
X5.1Y-2.425
X5.1Y-2.575
X5.125Y-2.6
X5.15Y-2.625
X5.175Y-2.65
X5.2Y-2.45
X5.2Y-4.825
X5.225Y-2.4
X5.25Y-2.375
X5.25Y-2.775
X5.3Y-2.475
X5.325Y-2.5
X5.35Y-5.05
X5.375Y-2.425
X5.375Y-5.025
X5.4Y-2.45
X5.4Y-5.0
X5.425Y-2.525
X5.425Y-4.975
X5.45Y-4.95
X5.5Y-2.325
X5.5Y-2.675
X5.6Y-2.55
X5.7Y-2.575
X5.8Y-2.6
X5.9Y-2.625
X5.925Y-2.3
X5.975Y-2.35
X5.975Y-4.925
X6.0Y-2.65
X6.0Y-4.9
X6.025Y-2.475
X6.025Y-4.875
X6.05Y-2.5
X6.075Y-2.525
X6.1Y-2.55
X6.125Y-2.575
X6.15Y-2.6
X6.175Y-2.625
X6.2Y-2.65
X6.225Y-2.7
X6.225Y-3.6
X6.225Y-5.075
X6.25Y-2.725
X6.275Y-2.4
X6.3Y-2.3
X6.325Y-2.375
X6.35Y-2.425
X6.35Y-5.05
X6.375Y-2.45
X6.375Y-5.025
X6.4Y-2.325
X6.4Y-5.0
X6.425Y-2.4
X6.425Y-2.65
X6.425Y-2.75
X6.425Y-4.975
X6.45Y-2.5
X6.45Y-2.625
X6.475Y-5.05
X6.5Y-2.675
X6.5Y-4.95
X6.575Y-2.675
X6.575Y-2.9
X6.575Y-4.825
X6.575Y-5.025
X6.6Y-2.575
X6.6Y-2.7
X6.6Y-2.75
X6.65Y-3.6
X6.675Y-5.0
X6.7Y-2.325
X6.725Y-2.25
X6.775Y-4.975
X6.8Y-4.85
X6.875Y-4.95
X6.975Y-4.925
X7.1Y-4.875
X7.125Y-4.9
X7.175Y-4.875
X7.2Y-4.925
X7.225Y-4.95
X7.25Y-4.975
X7.275Y-5.0
X7.3Y-5.025
X7.325Y-5.05
X7.5Y-4.7
X7.7Y-4.825
T2
X4.05Y-4.975
T3
X3.6Y-3.1
X3.6Y-3.4
X3.5Y-4.9
X3.5Y-5.2
X3.6Y-2.7
X3.6Y-3.0
T4
X3.5531Y-2.4
X3.75Y-2.4
X5.75Y-2.85
X5.75Y-3.0469
X6.65Y-4.05
X6.65Y-4.2469
X6.8Y-4.525
X6.9Y-4.525
X6.65Y-2.9531
X6.65Y-3.15
X3.15Y-2.4
X3.15Y-2.5
X3.15Y-2.6
X3.15Y-2.7
X3.15Y-2.8
X3.15Y-2.9
X3.15Y-3.0
X3.45Y-2.4
X3.45Y-2.5
X3.45Y-2.6
X3.45Y-2.7
X3.45Y-2.8
X3.45Y-2.9
X3.45Y-3.0
X3.15Y-3.725
X3.15Y-4.325
X3.45Y-3.725
X3.45Y-4.325
X3.9Y-2.85
X3.9Y-2.95
X3.9Y-3.05
X3.9Y-3.15
X3.9Y-3.25
X3.9Y-3.35
X3.9Y-3.45
X3.9Y-3.55
X3.9Y-3.65
X3.9Y-3.75
X3.9Y-3.85
X3.9Y-3.95
X3.9Y-4.05
X3.9Y-4.15
X3.9Y-4.25
X3.9Y-4.35
X3.9Y-4.45
X3.9Y-4.55
X3.9Y-4.65
X3.9Y-4.75
X4.5Y-2.85
X4.5Y-2.95
X4.5Y-3.05
X4.5Y-3.15
X4.5Y-3.25
X4.5Y-3.35
X4.5Y-3.45
X4.5Y-3.55
X4.5Y-3.65
X4.5Y-3.75
X4.5Y-3.85
X4.5Y-3.95
X4.5Y-4.05
X4.5Y-4.15
X4.5Y-4.25
X4.5Y-4.35
X4.5Y-4.45
X4.5Y-4.55
X4.5Y-4.65
X4.5Y-4.75
X6.7Y-4.375
X7.0Y-4.375
X5.9Y-2.85
X5.9Y-2.95
X5.9Y-3.05
X5.9Y-3.15
X5.9Y-3.25
X5.9Y-3.35
X5.9Y-3.45
X5.9Y-3.55
X5.9Y-3.65
X5.9Y-3.75
X5.9Y-3.85
X5.9Y-3.95
X5.9Y-4.05
X5.9Y-4.15
X6.5Y-2.85
X6.5Y-2.95
X6.5Y-3.05
X6.5Y-3.15
X6.5Y-3.25
X6.5Y-3.35
X6.5Y-3.45
X6.5Y-3.55
X6.5Y-3.65
X6.5Y-3.75
X6.5Y-3.85
X6.5Y-3.95
X6.5Y-4.05
X6.5Y-4.15
X3.575Y-3.55
X3.7719Y-3.55
X6.8Y-2.25
X6.8Y-2.35
X6.8Y-2.45
X6.8Y-2.55
X6.8Y-2.65
X6.8Y-2.75
X6.8Y-2.85
X6.8Y-2.95
X6.8Y-3.05
X6.8Y-3.15
X6.8Y-3.25
X6.8Y-3.35
X6.8Y-3.45
X6.8Y-3.55
X6.8Y-3.65
X6.8Y-3.75
X6.8Y-3.85
X6.8Y-3.95
X6.8Y-4.05
X6.8Y-4.15
X7.4Y-2.25
X7.4Y-2.35
X7.4Y-2.45
X7.4Y-2.55
X7.4Y-2.65
X7.4Y-2.75
X7.4Y-2.85
X7.4Y-2.95
X7.4Y-3.05
X7.4Y-3.15
X7.4Y-3.25
X7.4Y-3.35
X7.4Y-3.45
X7.4Y-3.55
X7.4Y-3.65
X7.4Y-3.75
X7.4Y-3.85
X7.4Y-3.95
X7.4Y-4.05
X7.4Y-4.15
X3.65Y-4.7281
X3.65Y-4.925
T5
X7.7Y-3.525
X7.7Y-3.625
X7.7Y-3.725
X7.7Y-3.825
X7.7Y-3.925
X7.7Y-4.025
X7.7Y-4.125
X7.8Y-3.525
X7.8Y-3.625
X7.8Y-3.725
X7.8Y-3.825
X7.8Y-3.925
X7.8Y-4.025
X7.8Y-4.125
X3.15Y-3.25
X3.15Y-3.35
X3.15Y-3.45
X6.5Y-5.2
X6.6Y-5.2
X6.7Y-5.2
X6.8Y-5.2
X6.9Y-5.2
X7.0Y-5.2
X7.1Y-5.2
X7.2Y-5.2
X3.1Y-5.1
X3.1Y-5.2
X4.9Y-3.225
X4.9Y-3.325
X4.9Y-3.425
X4.9Y-3.525
X4.9Y-3.625
X4.9Y-3.725
X4.9Y-3.825
X4.9Y-3.925
X4.9Y-4.025
X4.9Y-4.125
X4.9Y-4.225
X4.9Y-4.325
X4.9Y-4.425
X4.9Y-4.525
X5.5Y-3.225
X5.5Y-3.325
X5.5Y-3.425
X5.5Y-3.525
X5.5Y-3.625
X5.5Y-3.725
X5.5Y-3.825
X5.5Y-3.925
X5.5Y-4.025
X5.5Y-4.125
X5.5Y-4.225
X5.5Y-4.325
X5.5Y-4.425
X5.5Y-4.525
X4.5Y-5.2
X4.6Y-5.2
X4.7Y-5.2
X4.8Y-5.2
X4.9Y-5.2
X5.0Y-5.2
X5.1Y-5.2
X5.2Y-5.2
X7.7Y-2.25
X7.7Y-2.35
X7.7Y-2.45
X7.7Y-2.55
X7.7Y-2.65
X7.7Y-2.75
X7.7Y-2.85
X7.8Y-2.25
X7.8Y-2.35
X7.8Y-2.45
X7.8Y-2.55
X7.8Y-2.65
X7.8Y-2.75
X7.8Y-2.85
X4.5Y-2.2
X4.6Y-2.2
X4.7Y-2.2
X4.8Y-2.2
X4.9Y-2.2
X5.0Y-2.2
X5.1Y-2.2
X5.2Y-2.2
X5.3Y-2.2
X5.4Y-2.2
X5.5Y-2.2
X5.6Y-2.2
X5.7Y-2.2
X5.8Y-2.2
X5.9Y-2.2
X6.0Y-2.2
T6
X3.1Y-4.575
X3.1Y-4.7522
X3.3559Y-4.575
X3.3559Y-4.7522
T0
M30
