G04 #@! TF.GenerationSoftware,KiCad,Pcbnew,(5.1.5-0-10_14)*
G04 #@! TF.CreationDate,2020-11-20T10:26:45+01:00*
G04 #@! TF.ProjectId,6502,36353032-2e6b-4696-9361-645f70636258,rev?*
G04 #@! TF.SameCoordinates,Original*
G04 #@! TF.FileFunction,Legend,Top*
G04 #@! TF.FilePolarity,Positive*
%FSLAX46Y46*%
G04 Gerber Fmt 4.6, Leading zero omitted, Abs format (unit mm)*
G04 Created by KiCad (PCBNEW (5.1.5-0-10_14)) date 2020-11-20 10:26:45*
%MOMM*%
%LPD*%
G04 APERTURE LIST*
%ADD10C,0.150000*%
%ADD11C,0.120000*%
%ADD12C,0.300000*%
G04 APERTURE END LIST*
D10*
X131532380Y-128728214D02*
X131532380Y-129204404D01*
X132008571Y-129252023D01*
X131960952Y-129204404D01*
X131913333Y-129109166D01*
X131913333Y-128871071D01*
X131960952Y-128775833D01*
X132008571Y-128728214D01*
X132103809Y-128680595D01*
X132341904Y-128680595D01*
X132437142Y-128728214D01*
X132484761Y-128775833D01*
X132532380Y-128871071D01*
X132532380Y-129109166D01*
X132484761Y-129204404D01*
X132437142Y-129252023D01*
X131532380Y-128394880D02*
X132532380Y-128061547D01*
X131532380Y-127728214D01*
X129040000Y-128680595D02*
X128992380Y-128775833D01*
X128992380Y-128918690D01*
X129040000Y-129061547D01*
X129135238Y-129156785D01*
X129230476Y-129204404D01*
X129420952Y-129252023D01*
X129563809Y-129252023D01*
X129754285Y-129204404D01*
X129849523Y-129156785D01*
X129944761Y-129061547D01*
X129992380Y-128918690D01*
X129992380Y-128823452D01*
X129944761Y-128680595D01*
X129897142Y-128632976D01*
X129563809Y-128632976D01*
X129563809Y-128823452D01*
X129992380Y-128204404D02*
X128992380Y-128204404D01*
X129992380Y-127632976D01*
X128992380Y-127632976D01*
X129992380Y-127156785D02*
X128992380Y-127156785D01*
X128992380Y-126918690D01*
X129040000Y-126775833D01*
X129135238Y-126680595D01*
X129230476Y-126632976D01*
X129420952Y-126585357D01*
X129563809Y-126585357D01*
X129754285Y-126632976D01*
X129849523Y-126680595D01*
X129944761Y-126775833D01*
X129992380Y-126918690D01*
X129992380Y-127156785D01*
X127357142Y-128632976D02*
X127404761Y-128680595D01*
X127452380Y-128823452D01*
X127452380Y-128918690D01*
X127404761Y-129061547D01*
X127309523Y-129156785D01*
X127214285Y-129204404D01*
X127023809Y-129252023D01*
X126880952Y-129252023D01*
X126690476Y-129204404D01*
X126595238Y-129156785D01*
X126500000Y-129061547D01*
X126452380Y-128918690D01*
X126452380Y-128823452D01*
X126500000Y-128680595D01*
X126547619Y-128632976D01*
X127452380Y-127728214D02*
X127452380Y-128204404D01*
X126452380Y-128204404D01*
X127452380Y-127394880D02*
X126452380Y-127394880D01*
X127452380Y-126823452D02*
X126880952Y-127252023D01*
X126452380Y-126823452D02*
X127023809Y-127394880D01*
X124912380Y-129204404D02*
X123912380Y-129204404D01*
X124912380Y-128156785D02*
X124436190Y-128490119D01*
X124912380Y-128728214D02*
X123912380Y-128728214D01*
X123912380Y-128347261D01*
X123960000Y-128252023D01*
X124007619Y-128204404D01*
X124102857Y-128156785D01*
X124245714Y-128156785D01*
X124340952Y-128204404D01*
X124388571Y-128252023D01*
X124436190Y-128347261D01*
X124436190Y-128728214D01*
X125007619Y-127061547D02*
X124960000Y-127156785D01*
X124864761Y-127252023D01*
X124721904Y-127394880D01*
X124674285Y-127490119D01*
X124674285Y-127585357D01*
X124912380Y-127537738D02*
X124864761Y-127632976D01*
X124769523Y-127728214D01*
X124579047Y-127775833D01*
X124245714Y-127775833D01*
X124055238Y-127728214D01*
X123960000Y-127632976D01*
X123912380Y-127537738D01*
X123912380Y-127347261D01*
X123960000Y-127252023D01*
X124055238Y-127156785D01*
X124245714Y-127109166D01*
X124579047Y-127109166D01*
X124769523Y-127156785D01*
X124864761Y-127252023D01*
X124912380Y-127347261D01*
X124912380Y-127537738D01*
X122372380Y-128632976D02*
X121896190Y-128966309D01*
X122372380Y-129204404D02*
X121372380Y-129204404D01*
X121372380Y-128823452D01*
X121420000Y-128728214D01*
X121467619Y-128680595D01*
X121562857Y-128632976D01*
X121705714Y-128632976D01*
X121800952Y-128680595D01*
X121848571Y-128728214D01*
X121896190Y-128823452D01*
X121896190Y-129204404D01*
X121372380Y-128299642D02*
X122372380Y-128061547D01*
X121658095Y-127871071D01*
X122372380Y-127680595D01*
X121372380Y-127442500D01*
X119832380Y-128632976D02*
X119356190Y-128966309D01*
X119832380Y-129204404D02*
X118832380Y-129204404D01*
X118832380Y-128823452D01*
X118880000Y-128728214D01*
X118927619Y-128680595D01*
X119022857Y-128632976D01*
X119165714Y-128632976D01*
X119260952Y-128680595D01*
X119308571Y-128728214D01*
X119356190Y-128823452D01*
X119356190Y-129204404D01*
X119308571Y-128204404D02*
X119308571Y-127871071D01*
X119832380Y-127728214D02*
X119832380Y-128204404D01*
X118832380Y-128204404D01*
X118832380Y-127728214D01*
X119784761Y-127347261D02*
X119832380Y-127204404D01*
X119832380Y-126966309D01*
X119784761Y-126871071D01*
X119737142Y-126823452D01*
X119641904Y-126775833D01*
X119546666Y-126775833D01*
X119451428Y-126823452D01*
X119403809Y-126871071D01*
X119356190Y-126966309D01*
X119308571Y-127156785D01*
X119260952Y-127252023D01*
X119213333Y-127299642D01*
X119118095Y-127347261D01*
X119022857Y-127347261D01*
X118927619Y-127299642D01*
X118880000Y-127252023D01*
X118832380Y-127156785D01*
X118832380Y-126918690D01*
X118880000Y-126775833D01*
X117197142Y-128632976D02*
X117244761Y-128680595D01*
X117292380Y-128823452D01*
X117292380Y-128918690D01*
X117244761Y-129061547D01*
X117149523Y-129156785D01*
X117054285Y-129204404D01*
X116863809Y-129252023D01*
X116720952Y-129252023D01*
X116530476Y-129204404D01*
X116435238Y-129156785D01*
X116340000Y-129061547D01*
X116292380Y-128918690D01*
X116292380Y-128823452D01*
X116340000Y-128680595D01*
X116387619Y-128632976D01*
X117244761Y-128252023D02*
X117292380Y-128109166D01*
X117292380Y-127871071D01*
X117244761Y-127775833D01*
X117197142Y-127728214D01*
X117101904Y-127680595D01*
X117006666Y-127680595D01*
X116911428Y-127728214D01*
X116863809Y-127775833D01*
X116816190Y-127871071D01*
X116768571Y-128061547D01*
X116720952Y-128156785D01*
X116673333Y-128204404D01*
X116578095Y-128252023D01*
X116482857Y-128252023D01*
X116387619Y-128204404D01*
X116340000Y-128156785D01*
X116292380Y-128061547D01*
X116292380Y-127823452D01*
X116340000Y-127680595D01*
D11*
X133350000Y-59055000D02*
X133350000Y-54610000D01*
D10*
X134453333Y-58072976D02*
X134453333Y-58549166D01*
X134167619Y-57977738D02*
X135167619Y-58311071D01*
X134167619Y-58644404D01*
X135167619Y-58882500D02*
X135167619Y-59549166D01*
X134167619Y-59120595D01*
X131913333Y-58072976D02*
X131913333Y-58549166D01*
X131627619Y-57977738D02*
X132627619Y-58311071D01*
X131627619Y-58644404D01*
X132199047Y-59120595D02*
X132246666Y-59025357D01*
X132294285Y-58977738D01*
X132389523Y-58930119D01*
X132437142Y-58930119D01*
X132532380Y-58977738D01*
X132580000Y-59025357D01*
X132627619Y-59120595D01*
X132627619Y-59311071D01*
X132580000Y-59406309D01*
X132532380Y-59453928D01*
X132437142Y-59501547D01*
X132389523Y-59501547D01*
X132294285Y-59453928D01*
X132246666Y-59406309D01*
X132199047Y-59311071D01*
X132199047Y-59120595D01*
X132151428Y-59025357D01*
X132103809Y-58977738D01*
X132008571Y-58930119D01*
X131818095Y-58930119D01*
X131722857Y-58977738D01*
X131675238Y-59025357D01*
X131627619Y-59120595D01*
X131627619Y-59311071D01*
X131675238Y-59406309D01*
X131722857Y-59453928D01*
X131818095Y-59501547D01*
X132008571Y-59501547D01*
X132103809Y-59453928D01*
X132151428Y-59406309D01*
X132199047Y-59311071D01*
X183332380Y-129839404D02*
X182332380Y-129839404D01*
X182332380Y-129601309D01*
X182380000Y-129458452D01*
X182475238Y-129363214D01*
X182570476Y-129315595D01*
X182760952Y-129267976D01*
X182903809Y-129267976D01*
X183094285Y-129315595D01*
X183189523Y-129363214D01*
X183284761Y-129458452D01*
X183332380Y-129601309D01*
X183332380Y-129839404D01*
X182332380Y-128648928D02*
X182332380Y-128553690D01*
X182380000Y-128458452D01*
X182427619Y-128410833D01*
X182522857Y-128363214D01*
X182713333Y-128315595D01*
X182951428Y-128315595D01*
X183141904Y-128363214D01*
X183237142Y-128410833D01*
X183284761Y-128458452D01*
X183332380Y-128553690D01*
X183332380Y-128648928D01*
X183284761Y-128744166D01*
X183237142Y-128791785D01*
X183141904Y-128839404D01*
X182951428Y-128887023D01*
X182713333Y-128887023D01*
X182522857Y-128839404D01*
X182427619Y-128791785D01*
X182380000Y-128744166D01*
X182332380Y-128648928D01*
X165552380Y-129839404D02*
X164552380Y-129839404D01*
X164552380Y-129601309D01*
X164600000Y-129458452D01*
X164695238Y-129363214D01*
X164790476Y-129315595D01*
X164980952Y-129267976D01*
X165123809Y-129267976D01*
X165314285Y-129315595D01*
X165409523Y-129363214D01*
X165504761Y-129458452D01*
X165552380Y-129601309D01*
X165552380Y-129839404D01*
X164552380Y-128934642D02*
X164552380Y-128267976D01*
X165552380Y-128696547D01*
D11*
X184150000Y-131445000D02*
X184150000Y-128905000D01*
X162560000Y-131445000D02*
X162560000Y-128905000D01*
D10*
X114133333Y-58072976D02*
X114133333Y-58549166D01*
X113847619Y-57977738D02*
X114847619Y-58311071D01*
X113847619Y-58644404D01*
X113847619Y-59501547D02*
X113847619Y-58930119D01*
X113847619Y-59215833D02*
X114847619Y-59215833D01*
X114704761Y-59120595D01*
X114609523Y-59025357D01*
X114561904Y-58930119D01*
X114847619Y-60406309D02*
X114847619Y-59930119D01*
X114371428Y-59882500D01*
X114419047Y-59930119D01*
X114466666Y-60025357D01*
X114466666Y-60263452D01*
X114419047Y-60358690D01*
X114371428Y-60406309D01*
X114276190Y-60453928D01*
X114038095Y-60453928D01*
X113942857Y-60406309D01*
X113895238Y-60358690D01*
X113847619Y-60263452D01*
X113847619Y-60025357D01*
X113895238Y-59930119D01*
X113942857Y-59882500D01*
X152233333Y-58072976D02*
X152233333Y-58549166D01*
X151947619Y-57977738D02*
X152947619Y-58311071D01*
X151947619Y-58644404D01*
X152947619Y-59168214D02*
X152947619Y-59263452D01*
X152900000Y-59358690D01*
X152852380Y-59406309D01*
X152757142Y-59453928D01*
X152566666Y-59501547D01*
X152328571Y-59501547D01*
X152138095Y-59453928D01*
X152042857Y-59406309D01*
X151995238Y-59358690D01*
X151947619Y-59263452D01*
X151947619Y-59168214D01*
X151995238Y-59072976D01*
X152042857Y-59025357D01*
X152138095Y-58977738D01*
X152328571Y-58930119D01*
X152566666Y-58930119D01*
X152757142Y-58977738D01*
X152852380Y-59025357D01*
X152900000Y-59072976D01*
X152947619Y-59168214D01*
D11*
X113030000Y-57785000D02*
X113030000Y-54610000D01*
X153670000Y-57785000D02*
X153670000Y-54610000D01*
D10*
X76557142Y-97758095D02*
X76604761Y-97805714D01*
X76652380Y-97948571D01*
X76652380Y-98043809D01*
X76604761Y-98186666D01*
X76509523Y-98281904D01*
X76414285Y-98329523D01*
X76223809Y-98377142D01*
X76080952Y-98377142D01*
X75890476Y-98329523D01*
X75795238Y-98281904D01*
X75700000Y-98186666D01*
X75652380Y-98043809D01*
X75652380Y-97948571D01*
X75700000Y-97805714D01*
X75747619Y-97758095D01*
X76652380Y-97186666D02*
X76604761Y-97281904D01*
X76509523Y-97329523D01*
X75652380Y-97329523D01*
X76652380Y-96662857D02*
X76604761Y-96758095D01*
X76557142Y-96805714D01*
X76461904Y-96853333D01*
X76176190Y-96853333D01*
X76080952Y-96805714D01*
X76033333Y-96758095D01*
X75985714Y-96662857D01*
X75985714Y-96520000D01*
X76033333Y-96424761D01*
X76080952Y-96377142D01*
X76176190Y-96329523D01*
X76461904Y-96329523D01*
X76557142Y-96377142D01*
X76604761Y-96424761D01*
X76652380Y-96520000D01*
X76652380Y-96662857D01*
X76604761Y-95472380D02*
X76652380Y-95567619D01*
X76652380Y-95758095D01*
X76604761Y-95853333D01*
X76557142Y-95900952D01*
X76461904Y-95948571D01*
X76176190Y-95948571D01*
X76080952Y-95900952D01*
X76033333Y-95853333D01*
X75985714Y-95758095D01*
X75985714Y-95567619D01*
X76033333Y-95472380D01*
X76652380Y-95043809D02*
X75652380Y-95043809D01*
X76271428Y-94948571D02*
X76652380Y-94662857D01*
X75985714Y-94662857D02*
X76366666Y-95043809D01*
X76366666Y-72111428D02*
X76366666Y-71635238D01*
X76652380Y-72206666D02*
X75652380Y-71873333D01*
X76652380Y-71540000D01*
X76652380Y-70778095D02*
X75652380Y-70778095D01*
X76604761Y-70778095D02*
X76652380Y-70873333D01*
X76652380Y-71063809D01*
X76604761Y-71159047D01*
X76557142Y-71206666D01*
X76461904Y-71254285D01*
X76176190Y-71254285D01*
X76080952Y-71206666D01*
X76033333Y-71159047D01*
X75985714Y-71063809D01*
X75985714Y-70873333D01*
X76033333Y-70778095D01*
X76652380Y-69873333D02*
X75652380Y-69873333D01*
X76604761Y-69873333D02*
X76652380Y-69968571D01*
X76652380Y-70159047D01*
X76604761Y-70254285D01*
X76557142Y-70301904D01*
X76461904Y-70349523D01*
X76176190Y-70349523D01*
X76080952Y-70301904D01*
X76033333Y-70254285D01*
X75985714Y-70159047D01*
X75985714Y-69968571D01*
X76033333Y-69873333D01*
X76652380Y-69397142D02*
X75985714Y-69397142D01*
X76176190Y-69397142D02*
X76080952Y-69349523D01*
X76033333Y-69301904D01*
X75985714Y-69206666D01*
X75985714Y-69111428D01*
X76604761Y-68397142D02*
X76652380Y-68492380D01*
X76652380Y-68682857D01*
X76604761Y-68778095D01*
X76509523Y-68825714D01*
X76128571Y-68825714D01*
X76033333Y-68778095D01*
X75985714Y-68682857D01*
X75985714Y-68492380D01*
X76033333Y-68397142D01*
X76128571Y-68349523D01*
X76223809Y-68349523D01*
X76319047Y-68825714D01*
X76604761Y-67968571D02*
X76652380Y-67873333D01*
X76652380Y-67682857D01*
X76604761Y-67587619D01*
X76509523Y-67540000D01*
X76461904Y-67540000D01*
X76366666Y-67587619D01*
X76319047Y-67682857D01*
X76319047Y-67825714D01*
X76271428Y-67920952D01*
X76176190Y-67968571D01*
X76128571Y-67968571D01*
X76033333Y-67920952D01*
X75985714Y-67825714D01*
X75985714Y-67682857D01*
X76033333Y-67587619D01*
X76604761Y-67159047D02*
X76652380Y-67063809D01*
X76652380Y-66873333D01*
X76604761Y-66778095D01*
X76509523Y-66730476D01*
X76461904Y-66730476D01*
X76366666Y-66778095D01*
X76319047Y-66873333D01*
X76319047Y-67016190D01*
X76271428Y-67111428D01*
X76176190Y-67159047D01*
X76128571Y-67159047D01*
X76033333Y-67111428D01*
X75985714Y-67016190D01*
X75985714Y-66873333D01*
X76033333Y-66778095D01*
X76652380Y-65540000D02*
X75652380Y-65540000D01*
X75652380Y-65301904D01*
X75700000Y-65159047D01*
X75795238Y-65063809D01*
X75890476Y-65016190D01*
X76080952Y-64968571D01*
X76223809Y-64968571D01*
X76414285Y-65016190D01*
X76509523Y-65063809D01*
X76604761Y-65159047D01*
X76652380Y-65301904D01*
X76652380Y-65540000D01*
X76604761Y-64159047D02*
X76652380Y-64254285D01*
X76652380Y-64444761D01*
X76604761Y-64540000D01*
X76509523Y-64587619D01*
X76128571Y-64587619D01*
X76033333Y-64540000D01*
X75985714Y-64444761D01*
X75985714Y-64254285D01*
X76033333Y-64159047D01*
X76128571Y-64111428D01*
X76223809Y-64111428D01*
X76319047Y-64587619D01*
X76604761Y-63254285D02*
X76652380Y-63349523D01*
X76652380Y-63540000D01*
X76604761Y-63635238D01*
X76557142Y-63682857D01*
X76461904Y-63730476D01*
X76176190Y-63730476D01*
X76080952Y-63682857D01*
X76033333Y-63635238D01*
X75985714Y-63540000D01*
X75985714Y-63349523D01*
X76033333Y-63254285D01*
X76652380Y-62682857D02*
X76604761Y-62778095D01*
X76557142Y-62825714D01*
X76461904Y-62873333D01*
X76176190Y-62873333D01*
X76080952Y-62825714D01*
X76033333Y-62778095D01*
X75985714Y-62682857D01*
X75985714Y-62540000D01*
X76033333Y-62444761D01*
X76080952Y-62397142D01*
X76176190Y-62349523D01*
X76461904Y-62349523D01*
X76557142Y-62397142D01*
X76604761Y-62444761D01*
X76652380Y-62540000D01*
X76652380Y-62682857D01*
X76652380Y-61492380D02*
X75652380Y-61492380D01*
X76604761Y-61492380D02*
X76652380Y-61587619D01*
X76652380Y-61778095D01*
X76604761Y-61873333D01*
X76557142Y-61920952D01*
X76461904Y-61968571D01*
X76176190Y-61968571D01*
X76080952Y-61920952D01*
X76033333Y-61873333D01*
X75985714Y-61778095D01*
X75985714Y-61587619D01*
X76033333Y-61492380D01*
X76604761Y-60635238D02*
X76652380Y-60730476D01*
X76652380Y-60920952D01*
X76604761Y-61016190D01*
X76509523Y-61063809D01*
X76128571Y-61063809D01*
X76033333Y-61016190D01*
X75985714Y-60920952D01*
X75985714Y-60730476D01*
X76033333Y-60635238D01*
X76128571Y-60587619D01*
X76223809Y-60587619D01*
X76319047Y-61063809D01*
X76652380Y-60159047D02*
X75985714Y-60159047D01*
X76176190Y-60159047D02*
X76080952Y-60111428D01*
X76033333Y-60063809D01*
X75985714Y-59968571D01*
X75985714Y-59873333D01*
X192214523Y-104227380D02*
X191738333Y-104227380D01*
X191690714Y-104703571D01*
X191738333Y-104655952D01*
X191833571Y-104608333D01*
X192071666Y-104608333D01*
X192166904Y-104655952D01*
X192214523Y-104703571D01*
X192262142Y-104798809D01*
X192262142Y-105036904D01*
X192214523Y-105132142D01*
X192166904Y-105179761D01*
X192071666Y-105227380D01*
X191833571Y-105227380D01*
X191738333Y-105179761D01*
X191690714Y-105132142D01*
X192547857Y-104227380D02*
X192881190Y-105227380D01*
X193214523Y-104227380D01*
X191325476Y-99147380D02*
X191135000Y-99147380D01*
X191039761Y-99195000D01*
X190992142Y-99242619D01*
X190896904Y-99385476D01*
X190849285Y-99575952D01*
X190849285Y-99956904D01*
X190896904Y-100052142D01*
X190944523Y-100099761D01*
X191039761Y-100147380D01*
X191230238Y-100147380D01*
X191325476Y-100099761D01*
X191373095Y-100052142D01*
X191420714Y-99956904D01*
X191420714Y-99718809D01*
X191373095Y-99623571D01*
X191325476Y-99575952D01*
X191230238Y-99528333D01*
X191039761Y-99528333D01*
X190944523Y-99575952D01*
X190896904Y-99623571D01*
X190849285Y-99718809D01*
X192873333Y-102592142D02*
X192825714Y-102639761D01*
X192682857Y-102687380D01*
X192587619Y-102687380D01*
X192444761Y-102639761D01*
X192349523Y-102544523D01*
X192301904Y-102449285D01*
X192254285Y-102258809D01*
X192254285Y-102115952D01*
X192301904Y-101925476D01*
X192349523Y-101830238D01*
X192444761Y-101735000D01*
X192587619Y-101687380D01*
X192682857Y-101687380D01*
X192825714Y-101735000D01*
X192873333Y-101782619D01*
X193254285Y-101782619D02*
X193301904Y-101735000D01*
X193397142Y-101687380D01*
X193635238Y-101687380D01*
X193730476Y-101735000D01*
X193778095Y-101782619D01*
X193825714Y-101877857D01*
X193825714Y-101973095D01*
X193778095Y-102115952D01*
X193206666Y-102687380D01*
X193825714Y-102687380D01*
X192706666Y-99147380D02*
X193373333Y-99147380D01*
X192944761Y-100147380D01*
X193325714Y-92527380D02*
X192754285Y-92527380D01*
X193040000Y-92527380D02*
X193040000Y-91527380D01*
X192944761Y-91670238D01*
X192849523Y-91765476D01*
X192754285Y-91813095D01*
X191087380Y-91527380D02*
X191182619Y-91527380D01*
X191277857Y-91575000D01*
X191325476Y-91622619D01*
X191373095Y-91717857D01*
X191420714Y-91908333D01*
X191420714Y-92146428D01*
X191373095Y-92336904D01*
X191325476Y-92432142D01*
X191277857Y-92479761D01*
X191182619Y-92527380D01*
X191087380Y-92527380D01*
X190992142Y-92479761D01*
X190944523Y-92432142D01*
X190896904Y-92336904D01*
X190849285Y-92146428D01*
X190849285Y-91908333D01*
X190896904Y-91717857D01*
X190944523Y-91622619D01*
X190992142Y-91575000D01*
X191087380Y-91527380D01*
X192706666Y-94067380D02*
X193325714Y-94067380D01*
X192992380Y-94448333D01*
X193135238Y-94448333D01*
X193230476Y-94495952D01*
X193278095Y-94543571D01*
X193325714Y-94638809D01*
X193325714Y-94876904D01*
X193278095Y-94972142D01*
X193230476Y-95019761D01*
X193135238Y-95067380D01*
X192849523Y-95067380D01*
X192754285Y-95019761D01*
X192706666Y-94972142D01*
X191008095Y-89035000D02*
X190912857Y-88987380D01*
X190770000Y-88987380D01*
X190627142Y-89035000D01*
X190531904Y-89130238D01*
X190484285Y-89225476D01*
X190436666Y-89415952D01*
X190436666Y-89558809D01*
X190484285Y-89749285D01*
X190531904Y-89844523D01*
X190627142Y-89939761D01*
X190770000Y-89987380D01*
X190865238Y-89987380D01*
X191008095Y-89939761D01*
X191055714Y-89892142D01*
X191055714Y-89558809D01*
X190865238Y-89558809D01*
X191484285Y-89987380D02*
X191484285Y-88987380D01*
X192055714Y-89987380D01*
X192055714Y-88987380D01*
X192531904Y-89987380D02*
X192531904Y-88987380D01*
X192770000Y-88987380D01*
X192912857Y-89035000D01*
X193008095Y-89130238D01*
X193055714Y-89225476D01*
X193103333Y-89415952D01*
X193103333Y-89558809D01*
X193055714Y-89749285D01*
X193008095Y-89844523D01*
X192912857Y-89939761D01*
X192770000Y-89987380D01*
X192531904Y-89987380D01*
X190968333Y-102592142D02*
X190920714Y-102639761D01*
X190777857Y-102687380D01*
X190682619Y-102687380D01*
X190539761Y-102639761D01*
X190444523Y-102544523D01*
X190396904Y-102449285D01*
X190349285Y-102258809D01*
X190349285Y-102115952D01*
X190396904Y-101925476D01*
X190444523Y-101830238D01*
X190539761Y-101735000D01*
X190682619Y-101687380D01*
X190777857Y-101687380D01*
X190920714Y-101735000D01*
X190968333Y-101782619D01*
X191920714Y-102687380D02*
X191349285Y-102687380D01*
X191635000Y-102687380D02*
X191635000Y-101687380D01*
X191539761Y-101830238D01*
X191444523Y-101925476D01*
X191349285Y-101973095D01*
X191325476Y-96940714D02*
X191325476Y-97607380D01*
X191087380Y-96559761D02*
X190849285Y-97274047D01*
X191468333Y-97274047D01*
X193278095Y-96607380D02*
X192801904Y-96607380D01*
X192754285Y-97083571D01*
X192801904Y-97035952D01*
X192897142Y-96988333D01*
X193135238Y-96988333D01*
X193230476Y-97035952D01*
X193278095Y-97083571D01*
X193325714Y-97178809D01*
X193325714Y-97416904D01*
X193278095Y-97512142D01*
X193230476Y-97559761D01*
X193135238Y-97607380D01*
X192897142Y-97607380D01*
X192801904Y-97559761D01*
X192754285Y-97512142D01*
X190849285Y-94162619D02*
X190896904Y-94115000D01*
X190992142Y-94067380D01*
X191230238Y-94067380D01*
X191325476Y-94115000D01*
X191373095Y-94162619D01*
X191420714Y-94257857D01*
X191420714Y-94353095D01*
X191373095Y-94495952D01*
X190801666Y-95067380D01*
X191420714Y-95067380D01*
X192873333Y-70207142D02*
X192825714Y-70254761D01*
X192682857Y-70302380D01*
X192587619Y-70302380D01*
X192444761Y-70254761D01*
X192349523Y-70159523D01*
X192301904Y-70064285D01*
X192254285Y-69873809D01*
X192254285Y-69730952D01*
X192301904Y-69540476D01*
X192349523Y-69445238D01*
X192444761Y-69350000D01*
X192587619Y-69302380D01*
X192682857Y-69302380D01*
X192825714Y-69350000D01*
X192873333Y-69397619D01*
X193254285Y-69397619D02*
X193301904Y-69350000D01*
X193397142Y-69302380D01*
X193635238Y-69302380D01*
X193730476Y-69350000D01*
X193778095Y-69397619D01*
X193825714Y-69492857D01*
X193825714Y-69588095D01*
X193778095Y-69730952D01*
X193206666Y-70302380D01*
X193825714Y-70302380D01*
X190968333Y-70207142D02*
X190920714Y-70254761D01*
X190777857Y-70302380D01*
X190682619Y-70302380D01*
X190539761Y-70254761D01*
X190444523Y-70159523D01*
X190396904Y-70064285D01*
X190349285Y-69873809D01*
X190349285Y-69730952D01*
X190396904Y-69540476D01*
X190444523Y-69445238D01*
X190539761Y-69350000D01*
X190682619Y-69302380D01*
X190777857Y-69302380D01*
X190920714Y-69350000D01*
X190968333Y-69397619D01*
X191920714Y-70302380D02*
X191349285Y-70302380D01*
X191635000Y-70302380D02*
X191635000Y-69302380D01*
X191539761Y-69445238D01*
X191444523Y-69540476D01*
X191349285Y-69588095D01*
X192706666Y-66762380D02*
X193373333Y-66762380D01*
X192944761Y-67762380D01*
X191325476Y-66762380D02*
X191135000Y-66762380D01*
X191039761Y-66810000D01*
X190992142Y-66857619D01*
X190896904Y-67000476D01*
X190849285Y-67190952D01*
X190849285Y-67571904D01*
X190896904Y-67667142D01*
X190944523Y-67714761D01*
X191039761Y-67762380D01*
X191230238Y-67762380D01*
X191325476Y-67714761D01*
X191373095Y-67667142D01*
X191420714Y-67571904D01*
X191420714Y-67333809D01*
X191373095Y-67238571D01*
X191325476Y-67190952D01*
X191230238Y-67143333D01*
X191039761Y-67143333D01*
X190944523Y-67190952D01*
X190896904Y-67238571D01*
X190849285Y-67333809D01*
X193278095Y-64222380D02*
X192801904Y-64222380D01*
X192754285Y-64698571D01*
X192801904Y-64650952D01*
X192897142Y-64603333D01*
X193135238Y-64603333D01*
X193230476Y-64650952D01*
X193278095Y-64698571D01*
X193325714Y-64793809D01*
X193325714Y-65031904D01*
X193278095Y-65127142D01*
X193230476Y-65174761D01*
X193135238Y-65222380D01*
X192897142Y-65222380D01*
X192801904Y-65174761D01*
X192754285Y-65127142D01*
X191325476Y-64555714D02*
X191325476Y-65222380D01*
X191087380Y-64174761D02*
X190849285Y-64889047D01*
X191468333Y-64889047D01*
X192706666Y-61682380D02*
X193325714Y-61682380D01*
X192992380Y-62063333D01*
X193135238Y-62063333D01*
X193230476Y-62110952D01*
X193278095Y-62158571D01*
X193325714Y-62253809D01*
X193325714Y-62491904D01*
X193278095Y-62587142D01*
X193230476Y-62634761D01*
X193135238Y-62682380D01*
X192849523Y-62682380D01*
X192754285Y-62634761D01*
X192706666Y-62587142D01*
X190849285Y-61777619D02*
X190896904Y-61730000D01*
X190992142Y-61682380D01*
X191230238Y-61682380D01*
X191325476Y-61730000D01*
X191373095Y-61777619D01*
X191420714Y-61872857D01*
X191420714Y-61968095D01*
X191373095Y-62110952D01*
X190801666Y-62682380D01*
X191420714Y-62682380D01*
X193325714Y-60142380D02*
X192754285Y-60142380D01*
X193040000Y-60142380D02*
X193040000Y-59142380D01*
X192944761Y-59285238D01*
X192849523Y-59380476D01*
X192754285Y-59428095D01*
X191087380Y-59142380D02*
X191182619Y-59142380D01*
X191277857Y-59190000D01*
X191325476Y-59237619D01*
X191373095Y-59332857D01*
X191420714Y-59523333D01*
X191420714Y-59761428D01*
X191373095Y-59951904D01*
X191325476Y-60047142D01*
X191277857Y-60094761D01*
X191182619Y-60142380D01*
X191087380Y-60142380D01*
X190992142Y-60094761D01*
X190944523Y-60047142D01*
X190896904Y-59951904D01*
X190849285Y-59761428D01*
X190849285Y-59523333D01*
X190896904Y-59332857D01*
X190944523Y-59237619D01*
X190992142Y-59190000D01*
X191087380Y-59142380D01*
X194048333Y-87447380D02*
X194048333Y-86447380D01*
X194429285Y-86447380D01*
X194524523Y-86495000D01*
X194572142Y-86542619D01*
X194619761Y-86637857D01*
X194619761Y-86780714D01*
X194572142Y-86875952D01*
X194524523Y-86923571D01*
X194429285Y-86971190D01*
X194048333Y-86971190D01*
X195238809Y-86447380D02*
X195429285Y-86447380D01*
X195524523Y-86495000D01*
X195619761Y-86590238D01*
X195667380Y-86780714D01*
X195667380Y-87114047D01*
X195619761Y-87304523D01*
X195524523Y-87399761D01*
X195429285Y-87447380D01*
X195238809Y-87447380D01*
X195143571Y-87399761D01*
X195048333Y-87304523D01*
X195000714Y-87114047D01*
X195000714Y-86780714D01*
X195048333Y-86590238D01*
X195143571Y-86495000D01*
X195238809Y-86447380D01*
X196667380Y-87447380D02*
X196334047Y-86971190D01*
X196095952Y-87447380D02*
X196095952Y-86447380D01*
X196476904Y-86447380D01*
X196572142Y-86495000D01*
X196619761Y-86542619D01*
X196667380Y-86637857D01*
X196667380Y-86780714D01*
X196619761Y-86875952D01*
X196572142Y-86923571D01*
X196476904Y-86971190D01*
X196095952Y-86971190D01*
X196953095Y-86447380D02*
X197524523Y-86447380D01*
X197238809Y-87447380D02*
X197238809Y-86447380D01*
X198191190Y-86923571D02*
X198334047Y-86971190D01*
X198381666Y-87018809D01*
X198429285Y-87114047D01*
X198429285Y-87256904D01*
X198381666Y-87352142D01*
X198334047Y-87399761D01*
X198238809Y-87447380D01*
X197857857Y-87447380D01*
X197857857Y-86447380D01*
X198191190Y-86447380D01*
X198286428Y-86495000D01*
X198334047Y-86542619D01*
X198381666Y-86637857D01*
X198381666Y-86733095D01*
X198334047Y-86828333D01*
X198286428Y-86875952D01*
X198191190Y-86923571D01*
X197857857Y-86923571D01*
X194119761Y-55062380D02*
X194119761Y-54062380D01*
X194500714Y-54062380D01*
X194595952Y-54110000D01*
X194643571Y-54157619D01*
X194691190Y-54252857D01*
X194691190Y-54395714D01*
X194643571Y-54490952D01*
X194595952Y-54538571D01*
X194500714Y-54586190D01*
X194119761Y-54586190D01*
X195310238Y-54062380D02*
X195500714Y-54062380D01*
X195595952Y-54110000D01*
X195691190Y-54205238D01*
X195738809Y-54395714D01*
X195738809Y-54729047D01*
X195691190Y-54919523D01*
X195595952Y-55014761D01*
X195500714Y-55062380D01*
X195310238Y-55062380D01*
X195215000Y-55014761D01*
X195119761Y-54919523D01*
X195072142Y-54729047D01*
X195072142Y-54395714D01*
X195119761Y-54205238D01*
X195215000Y-54110000D01*
X195310238Y-54062380D01*
X196738809Y-55062380D02*
X196405476Y-54586190D01*
X196167380Y-55062380D02*
X196167380Y-54062380D01*
X196548333Y-54062380D01*
X196643571Y-54110000D01*
X196691190Y-54157619D01*
X196738809Y-54252857D01*
X196738809Y-54395714D01*
X196691190Y-54490952D01*
X196643571Y-54538571D01*
X196548333Y-54586190D01*
X196167380Y-54586190D01*
X197024523Y-54062380D02*
X197595952Y-54062380D01*
X197310238Y-55062380D02*
X197310238Y-54062380D01*
X197881666Y-54776666D02*
X198357857Y-54776666D01*
X197786428Y-55062380D02*
X198119761Y-54062380D01*
X198453095Y-55062380D01*
X192214523Y-71842380D02*
X191738333Y-71842380D01*
X191690714Y-72318571D01*
X191738333Y-72270952D01*
X191833571Y-72223333D01*
X192071666Y-72223333D01*
X192166904Y-72270952D01*
X192214523Y-72318571D01*
X192262142Y-72413809D01*
X192262142Y-72651904D01*
X192214523Y-72747142D01*
X192166904Y-72794761D01*
X192071666Y-72842380D01*
X191833571Y-72842380D01*
X191738333Y-72794761D01*
X191690714Y-72747142D01*
X192547857Y-71842380D02*
X192881190Y-72842380D01*
X193214523Y-71842380D01*
X191008095Y-56650000D02*
X190912857Y-56602380D01*
X190770000Y-56602380D01*
X190627142Y-56650000D01*
X190531904Y-56745238D01*
X190484285Y-56840476D01*
X190436666Y-57030952D01*
X190436666Y-57173809D01*
X190484285Y-57364285D01*
X190531904Y-57459523D01*
X190627142Y-57554761D01*
X190770000Y-57602380D01*
X190865238Y-57602380D01*
X191008095Y-57554761D01*
X191055714Y-57507142D01*
X191055714Y-57173809D01*
X190865238Y-57173809D01*
X191484285Y-57602380D02*
X191484285Y-56602380D01*
X192055714Y-57602380D01*
X192055714Y-56602380D01*
X192531904Y-57602380D02*
X192531904Y-56602380D01*
X192770000Y-56602380D01*
X192912857Y-56650000D01*
X193008095Y-56745238D01*
X193055714Y-56840476D01*
X193103333Y-57030952D01*
X193103333Y-57173809D01*
X193055714Y-57364285D01*
X193008095Y-57459523D01*
X192912857Y-57554761D01*
X192770000Y-57602380D01*
X192531904Y-57602380D01*
X186960000Y-108672380D02*
X187293333Y-109672380D01*
X187626666Y-108672380D01*
X187960000Y-109672380D02*
X187960000Y-108672380D01*
X188388571Y-109386666D02*
X188864761Y-109386666D01*
X188293333Y-109672380D02*
X188626666Y-108672380D01*
X188960000Y-109672380D01*
X145264285Y-121737380D02*
X144930952Y-121261190D01*
X144692857Y-121737380D02*
X144692857Y-120737380D01*
X145073809Y-120737380D01*
X145169047Y-120785000D01*
X145216666Y-120832619D01*
X145264285Y-120927857D01*
X145264285Y-121070714D01*
X145216666Y-121165952D01*
X145169047Y-121213571D01*
X145073809Y-121261190D01*
X144692857Y-121261190D01*
X145883333Y-120737380D02*
X146073809Y-120737380D01*
X146169047Y-120785000D01*
X146264285Y-120880238D01*
X146311904Y-121070714D01*
X146311904Y-121404047D01*
X146264285Y-121594523D01*
X146169047Y-121689761D01*
X146073809Y-121737380D01*
X145883333Y-121737380D01*
X145788095Y-121689761D01*
X145692857Y-121594523D01*
X145645238Y-121404047D01*
X145645238Y-121070714D01*
X145692857Y-120880238D01*
X145788095Y-120785000D01*
X145883333Y-120737380D01*
X146740476Y-121737380D02*
X146740476Y-120737380D01*
X147073809Y-121451666D01*
X147407142Y-120737380D01*
X147407142Y-121737380D01*
X164409523Y-109672380D02*
X164076190Y-109196190D01*
X163838095Y-109672380D02*
X163838095Y-108672380D01*
X164219047Y-108672380D01*
X164314285Y-108720000D01*
X164361904Y-108767619D01*
X164409523Y-108862857D01*
X164409523Y-109005714D01*
X164361904Y-109100952D01*
X164314285Y-109148571D01*
X164219047Y-109196190D01*
X163838095Y-109196190D01*
X164790476Y-109386666D02*
X165266666Y-109386666D01*
X164695238Y-109672380D02*
X165028571Y-108672380D01*
X165361904Y-109672380D01*
X165695238Y-109672380D02*
X165695238Y-108672380D01*
X166028571Y-109386666D01*
X166361904Y-108672380D01*
X166361904Y-109672380D01*
X116760714Y-121642142D02*
X116713095Y-121689761D01*
X116570238Y-121737380D01*
X116475000Y-121737380D01*
X116332142Y-121689761D01*
X116236904Y-121594523D01*
X116189285Y-121499285D01*
X116141666Y-121308809D01*
X116141666Y-121165952D01*
X116189285Y-120975476D01*
X116236904Y-120880238D01*
X116332142Y-120785000D01*
X116475000Y-120737380D01*
X116570238Y-120737380D01*
X116713095Y-120785000D01*
X116760714Y-120832619D01*
X117189285Y-121737380D02*
X117189285Y-120737380D01*
X117570238Y-120737380D01*
X117665476Y-120785000D01*
X117713095Y-120832619D01*
X117760714Y-120927857D01*
X117760714Y-121070714D01*
X117713095Y-121165952D01*
X117665476Y-121213571D01*
X117570238Y-121261190D01*
X117189285Y-121261190D01*
X118189285Y-120737380D02*
X118189285Y-121546904D01*
X118236904Y-121642142D01*
X118284523Y-121689761D01*
X118379761Y-121737380D01*
X118570238Y-121737380D01*
X118665476Y-121689761D01*
X118713095Y-121642142D01*
X118760714Y-121546904D01*
X118760714Y-120737380D01*
D12*
X197572142Y-81581428D02*
X194572142Y-81581428D01*
X194572142Y-79581428D02*
X194572142Y-79010000D01*
X194715000Y-78724285D01*
X195000714Y-78438571D01*
X195572142Y-78295714D01*
X196572142Y-78295714D01*
X197143571Y-78438571D01*
X197429285Y-78724285D01*
X197572142Y-79010000D01*
X197572142Y-79581428D01*
X197429285Y-79867142D01*
X197143571Y-80152857D01*
X196572142Y-80295714D01*
X195572142Y-80295714D01*
X195000714Y-80152857D01*
X194715000Y-79867142D01*
X194572142Y-79581428D01*
X164104285Y-127722142D02*
X164104285Y-124722143D01*
X164818570Y-124722143D01*
X165247142Y-124865000D01*
X165532856Y-125150714D01*
X165675713Y-125436428D01*
X165818570Y-126007857D01*
X165818570Y-126436428D01*
X165675713Y-127007856D01*
X165532856Y-127293571D01*
X165247142Y-127579285D01*
X164818570Y-127722142D01*
X164104285Y-127722142D01*
X168389998Y-127722142D02*
X168389998Y-126150714D01*
X168247141Y-125865000D01*
X167961427Y-125722143D01*
X167389998Y-125722143D01*
X167104284Y-125865000D01*
X168389998Y-127579285D02*
X168104284Y-127722142D01*
X167389998Y-127722142D01*
X167104284Y-127579285D01*
X166961427Y-127293571D01*
X166961427Y-127007856D01*
X167104284Y-126722142D01*
X167389998Y-126579285D01*
X168104284Y-126579285D01*
X168389998Y-126436428D01*
X169389998Y-125722143D02*
X170532854Y-125722143D01*
X169818569Y-124722143D02*
X169818569Y-127293571D01*
X169961426Y-127579285D01*
X170247140Y-127722142D01*
X170532854Y-127722142D01*
X172818568Y-127722142D02*
X172818568Y-126150714D01*
X172675711Y-125865000D01*
X172389997Y-125722143D01*
X171818568Y-125722143D01*
X171532854Y-125865000D01*
X172818568Y-127579285D02*
X172532854Y-127722142D01*
X171818568Y-127722142D01*
X171532854Y-127579285D01*
X171389997Y-127293571D01*
X171389997Y-127007856D01*
X171532854Y-126722142D01*
X171818568Y-126579285D01*
X172532854Y-126579285D01*
X172818568Y-126436428D01*
X177532852Y-126150714D02*
X177961423Y-126293571D01*
X178104280Y-126436428D01*
X178247137Y-126722142D01*
X178247137Y-127150714D01*
X178104280Y-127436428D01*
X177961423Y-127579285D01*
X177675709Y-127722142D01*
X176532852Y-127722142D01*
X176532852Y-124722143D01*
X177532852Y-124722143D01*
X177818566Y-124865000D01*
X177961423Y-125007857D01*
X178104280Y-125293571D01*
X178104280Y-125579285D01*
X177961423Y-125865000D01*
X177818566Y-126007857D01*
X177532852Y-126150714D01*
X176532852Y-126150714D01*
X180818565Y-125722143D02*
X180818565Y-127722142D01*
X179532851Y-125722143D02*
X179532851Y-127293571D01*
X179675708Y-127579285D01*
X179961423Y-127722142D01*
X180389994Y-127722142D01*
X180675708Y-127579285D01*
X180818565Y-127436428D01*
X182104279Y-127579285D02*
X182389993Y-127722142D01*
X182961422Y-127722142D01*
X183247136Y-127579285D01*
X183389993Y-127293571D01*
X183389993Y-127150714D01*
X183247136Y-126864999D01*
X182961422Y-126722142D01*
X182532850Y-126722142D01*
X182247136Y-126579285D01*
X182104279Y-126293571D01*
X182104279Y-126150714D01*
X182247136Y-125865000D01*
X182532850Y-125722143D01*
X182961422Y-125722143D01*
X183247136Y-125865000D01*
X120146428Y-60824999D02*
X121574999Y-60824999D01*
X119860714Y-61682142D02*
X120860713Y-58682143D01*
X121860713Y-61682142D01*
X124146427Y-61682142D02*
X124146427Y-58682143D01*
X124146427Y-61539285D02*
X123860712Y-61682142D01*
X123289284Y-61682142D01*
X123003570Y-61539285D01*
X122860713Y-61396428D01*
X122717856Y-61110714D01*
X122717856Y-60253571D01*
X122860713Y-59967857D01*
X123003570Y-59825000D01*
X123289284Y-59682143D01*
X123860712Y-59682143D01*
X124146427Y-59825000D01*
X126860711Y-61682142D02*
X126860711Y-58682143D01*
X126860711Y-61539285D02*
X126574997Y-61682142D01*
X126003569Y-61682142D01*
X125717855Y-61539285D01*
X125574998Y-61396428D01*
X125432140Y-61110714D01*
X125432140Y-60253571D01*
X125574998Y-59967857D01*
X125717855Y-59825000D01*
X126003569Y-59682143D01*
X126574997Y-59682143D01*
X126860711Y-59825000D01*
X128289282Y-61682142D02*
X128289282Y-59682143D01*
X128289282Y-60253571D02*
X128432139Y-59967857D01*
X128574997Y-59825000D01*
X128860711Y-59682143D01*
X129146425Y-59682143D01*
X131289281Y-61539285D02*
X131003567Y-61682142D01*
X130432139Y-61682142D01*
X130146425Y-61539285D01*
X130003567Y-61253571D01*
X130003567Y-60110714D01*
X130146425Y-59825000D01*
X130432139Y-59682143D01*
X131003567Y-59682143D01*
X131289281Y-59825000D01*
X131432138Y-60110714D01*
X131432138Y-60396428D01*
X130003567Y-60682142D01*
X132574995Y-61539285D02*
X132860709Y-61682142D01*
X133432138Y-61682142D01*
X133717852Y-61539285D01*
X133860709Y-61253571D01*
X133860709Y-61110714D01*
X133717852Y-60824999D01*
X133432138Y-60682142D01*
X133003566Y-60682142D01*
X132717852Y-60539285D01*
X132574995Y-60253571D01*
X132574995Y-60110714D01*
X132717852Y-59825000D01*
X133003566Y-59682143D01*
X133432138Y-59682143D01*
X133717852Y-59825000D01*
X135003566Y-61539285D02*
X135289280Y-61682142D01*
X135860708Y-61682142D01*
X136146423Y-61539285D01*
X136289280Y-61253571D01*
X136289280Y-61110714D01*
X136146423Y-60824999D01*
X135860708Y-60682142D01*
X135432137Y-60682142D01*
X135146423Y-60539285D01*
X135003566Y-60253571D01*
X135003566Y-60110714D01*
X135146423Y-59825000D01*
X135432137Y-59682143D01*
X135860708Y-59682143D01*
X136146423Y-59825000D01*
X140860707Y-60110714D02*
X141289278Y-60253571D01*
X141432135Y-60396428D01*
X141574992Y-60682142D01*
X141574992Y-61110714D01*
X141432135Y-61396428D01*
X141289278Y-61539285D01*
X141003564Y-61682142D01*
X139860707Y-61682142D01*
X139860707Y-58682143D01*
X140860707Y-58682143D01*
X141146421Y-58825000D01*
X141289278Y-58967857D01*
X141432135Y-59253571D01*
X141432135Y-59539285D01*
X141289278Y-59825000D01*
X141146421Y-59967857D01*
X140860707Y-60110714D01*
X139860707Y-60110714D01*
X144146420Y-59682143D02*
X144146420Y-61682142D01*
X142860706Y-59682143D02*
X142860706Y-61253571D01*
X143003563Y-61539285D01*
X143289277Y-61682142D01*
X143717849Y-61682142D01*
X144003563Y-61539285D01*
X144146420Y-61396428D01*
X145432134Y-61539285D02*
X145717848Y-61682142D01*
X146289276Y-61682142D01*
X146574991Y-61539285D01*
X146717848Y-61253571D01*
X146717848Y-61110714D01*
X146574991Y-60824999D01*
X146289276Y-60682142D01*
X145860705Y-60682142D01*
X145574991Y-60539285D01*
X145432134Y-60253571D01*
X145432134Y-60110714D01*
X145574991Y-59825000D01*
X145860705Y-59682143D01*
X146289276Y-59682143D01*
X146574991Y-59825000D01*
D10*
X76557142Y-89018571D02*
X76604761Y-89066190D01*
X76652380Y-89209047D01*
X76652380Y-89304285D01*
X76604761Y-89447142D01*
X76509523Y-89542380D01*
X76414285Y-89590000D01*
X76223809Y-89637619D01*
X76080952Y-89637619D01*
X75890476Y-89590000D01*
X75795238Y-89542380D01*
X75700000Y-89447142D01*
X75652380Y-89304285D01*
X75652380Y-89209047D01*
X75700000Y-89066190D01*
X75747619Y-89018571D01*
X76652380Y-88447142D02*
X76604761Y-88542380D01*
X76509523Y-88590000D01*
X75652380Y-88590000D01*
X76652380Y-87923333D02*
X76604761Y-88018571D01*
X76557142Y-88066190D01*
X76461904Y-88113809D01*
X76176190Y-88113809D01*
X76080952Y-88066190D01*
X76033333Y-88018571D01*
X75985714Y-87923333D01*
X75985714Y-87780476D01*
X76033333Y-87685238D01*
X76080952Y-87637619D01*
X76176190Y-87590000D01*
X76461904Y-87590000D01*
X76557142Y-87637619D01*
X76604761Y-87685238D01*
X76652380Y-87780476D01*
X76652380Y-87923333D01*
X76604761Y-86732857D02*
X76652380Y-86828095D01*
X76652380Y-87018571D01*
X76604761Y-87113809D01*
X76557142Y-87161428D01*
X76461904Y-87209047D01*
X76176190Y-87209047D01*
X76080952Y-87161428D01*
X76033333Y-87113809D01*
X75985714Y-87018571D01*
X75985714Y-86828095D01*
X76033333Y-86732857D01*
X76652380Y-86304285D02*
X75652380Y-86304285D01*
X76271428Y-86209047D02*
X76652380Y-85923333D01*
X75985714Y-85923333D02*
X76366666Y-86304285D01*
X76604761Y-84780476D02*
X76652380Y-84637619D01*
X76652380Y-84399523D01*
X76604761Y-84304285D01*
X76557142Y-84256666D01*
X76461904Y-84209047D01*
X76366666Y-84209047D01*
X76271428Y-84256666D01*
X76223809Y-84304285D01*
X76176190Y-84399523D01*
X76128571Y-84590000D01*
X76080952Y-84685238D01*
X76033333Y-84732857D01*
X75938095Y-84780476D01*
X75842857Y-84780476D01*
X75747619Y-84732857D01*
X75700000Y-84685238D01*
X75652380Y-84590000D01*
X75652380Y-84351904D01*
X75700000Y-84209047D01*
X76604761Y-83399523D02*
X76652380Y-83494761D01*
X76652380Y-83685238D01*
X76604761Y-83780476D01*
X76509523Y-83828095D01*
X76128571Y-83828095D01*
X76033333Y-83780476D01*
X75985714Y-83685238D01*
X75985714Y-83494761D01*
X76033333Y-83399523D01*
X76128571Y-83351904D01*
X76223809Y-83351904D01*
X76319047Y-83828095D01*
X76652380Y-82780476D02*
X76604761Y-82875714D01*
X76509523Y-82923333D01*
X75652380Y-82923333D01*
X76604761Y-82018571D02*
X76652380Y-82113809D01*
X76652380Y-82304285D01*
X76604761Y-82399523D01*
X76509523Y-82447142D01*
X76128571Y-82447142D01*
X76033333Y-82399523D01*
X75985714Y-82304285D01*
X75985714Y-82113809D01*
X76033333Y-82018571D01*
X76128571Y-81970952D01*
X76223809Y-81970952D01*
X76319047Y-82447142D01*
X76604761Y-81113809D02*
X76652380Y-81209047D01*
X76652380Y-81399523D01*
X76604761Y-81494761D01*
X76557142Y-81542380D01*
X76461904Y-81590000D01*
X76176190Y-81590000D01*
X76080952Y-81542380D01*
X76033333Y-81494761D01*
X75985714Y-81399523D01*
X75985714Y-81209047D01*
X76033333Y-81113809D01*
X75985714Y-80828095D02*
X75985714Y-80447142D01*
X75652380Y-80685238D02*
X76509523Y-80685238D01*
X76604761Y-80637619D01*
X76652380Y-80542380D01*
X76652380Y-80447142D01*
X83748571Y-85359523D02*
X83748571Y-85026190D01*
X84272380Y-84883333D02*
X84272380Y-85359523D01*
X83272380Y-85359523D01*
X83272380Y-84883333D01*
X84272380Y-84550000D02*
X83605714Y-84026190D01*
X83605714Y-84550000D02*
X84272380Y-84026190D01*
X83605714Y-83788095D02*
X83605714Y-83407142D01*
X83272380Y-83645238D02*
X84129523Y-83645238D01*
X84224761Y-83597619D01*
X84272380Y-83502380D01*
X84272380Y-83407142D01*
X84224761Y-82692857D02*
X84272380Y-82788095D01*
X84272380Y-82978571D01*
X84224761Y-83073809D01*
X84129523Y-83121428D01*
X83748571Y-83121428D01*
X83653333Y-83073809D01*
X83605714Y-82978571D01*
X83605714Y-82788095D01*
X83653333Y-82692857D01*
X83748571Y-82645238D01*
X83843809Y-82645238D01*
X83939047Y-83121428D01*
X84272380Y-82216666D02*
X83605714Y-82216666D01*
X83796190Y-82216666D02*
X83700952Y-82169047D01*
X83653333Y-82121428D01*
X83605714Y-82026190D01*
X83605714Y-81930952D01*
X83605714Y-81597619D02*
X84272380Y-81597619D01*
X83700952Y-81597619D02*
X83653333Y-81550000D01*
X83605714Y-81454761D01*
X83605714Y-81311904D01*
X83653333Y-81216666D01*
X83748571Y-81169047D01*
X84272380Y-81169047D01*
X84272380Y-80264285D02*
X83748571Y-80264285D01*
X83653333Y-80311904D01*
X83605714Y-80407142D01*
X83605714Y-80597619D01*
X83653333Y-80692857D01*
X84224761Y-80264285D02*
X84272380Y-80359523D01*
X84272380Y-80597619D01*
X84224761Y-80692857D01*
X84129523Y-80740476D01*
X84034285Y-80740476D01*
X83939047Y-80692857D01*
X83891428Y-80597619D01*
X83891428Y-80359523D01*
X83843809Y-80264285D01*
X84272380Y-79645238D02*
X84224761Y-79740476D01*
X84129523Y-79788095D01*
X83272380Y-79788095D01*
X84272380Y-91542857D02*
X83272380Y-91542857D01*
X83605714Y-91066666D02*
X84272380Y-91066666D01*
X83700952Y-91066666D02*
X83653333Y-91019047D01*
X83605714Y-90923809D01*
X83605714Y-90780952D01*
X83653333Y-90685714D01*
X83748571Y-90638095D01*
X84272380Y-90638095D01*
X83605714Y-90304761D02*
X83605714Y-89923809D01*
X83272380Y-90161904D02*
X84129523Y-90161904D01*
X84224761Y-90114285D01*
X84272380Y-90019047D01*
X84272380Y-89923809D01*
X84224761Y-89209523D02*
X84272380Y-89304761D01*
X84272380Y-89495238D01*
X84224761Y-89590476D01*
X84129523Y-89638095D01*
X83748571Y-89638095D01*
X83653333Y-89590476D01*
X83605714Y-89495238D01*
X83605714Y-89304761D01*
X83653333Y-89209523D01*
X83748571Y-89161904D01*
X83843809Y-89161904D01*
X83939047Y-89638095D01*
X84272380Y-88733333D02*
X83605714Y-88733333D01*
X83796190Y-88733333D02*
X83700952Y-88685714D01*
X83653333Y-88638095D01*
X83605714Y-88542857D01*
X83605714Y-88447619D01*
X83605714Y-88114285D02*
X84272380Y-88114285D01*
X83700952Y-88114285D02*
X83653333Y-88066666D01*
X83605714Y-87971428D01*
X83605714Y-87828571D01*
X83653333Y-87733333D01*
X83748571Y-87685714D01*
X84272380Y-87685714D01*
X84272380Y-86780952D02*
X83748571Y-86780952D01*
X83653333Y-86828571D01*
X83605714Y-86923809D01*
X83605714Y-87114285D01*
X83653333Y-87209523D01*
X84224761Y-86780952D02*
X84272380Y-86876190D01*
X84272380Y-87114285D01*
X84224761Y-87209523D01*
X84129523Y-87257142D01*
X84034285Y-87257142D01*
X83939047Y-87209523D01*
X83891428Y-87114285D01*
X83891428Y-86876190D01*
X83843809Y-86780952D01*
X84272380Y-86161904D02*
X84224761Y-86257142D01*
X84129523Y-86304761D01*
X83272380Y-86304761D01*
D11*
X80070000Y-133410000D02*
X78740000Y-133410000D01*
X80070000Y-132080000D02*
X80070000Y-133410000D01*
X80070000Y-130810000D02*
X77410000Y-130810000D01*
X77410000Y-130810000D02*
X77410000Y-128210000D01*
X80070000Y-130810000D02*
X80070000Y-128210000D01*
X80070000Y-128210000D02*
X77410000Y-128210000D01*
X167855000Y-107640000D02*
X167840000Y-107640000D01*
X169980000Y-107640000D02*
X169965000Y-107640000D01*
X167855000Y-103100000D02*
X167840000Y-103100000D01*
X169980000Y-103100000D02*
X169965000Y-103100000D01*
X167840000Y-103100000D02*
X167840000Y-107640000D01*
X169980000Y-103100000D02*
X169980000Y-107640000D01*
X169965000Y-75240000D02*
X169980000Y-75240000D01*
X167840000Y-75240000D02*
X167855000Y-75240000D01*
X169965000Y-79780000D02*
X169980000Y-79780000D01*
X167840000Y-79780000D02*
X167855000Y-79780000D01*
X169980000Y-79780000D02*
X169980000Y-75240000D01*
X167840000Y-79780000D02*
X167840000Y-75240000D01*
X144995000Y-77160000D02*
X144980000Y-77160000D01*
X147120000Y-77160000D02*
X147105000Y-77160000D01*
X144995000Y-72620000D02*
X144980000Y-72620000D01*
X147120000Y-72620000D02*
X147105000Y-72620000D01*
X144980000Y-72620000D02*
X144980000Y-77160000D01*
X147120000Y-72620000D02*
X147120000Y-77160000D01*
X95575000Y-91225000D02*
X95575000Y-91240000D01*
X95575000Y-89100000D02*
X95575000Y-89115000D01*
X91035000Y-91225000D02*
X91035000Y-91240000D01*
X91035000Y-89100000D02*
X91035000Y-89115000D01*
X91035000Y-91240000D02*
X95575000Y-91240000D01*
X91035000Y-89100000D02*
X95575000Y-89100000D01*
X90480000Y-59905000D02*
X90480000Y-59890000D01*
X90480000Y-62030000D02*
X90480000Y-62015000D01*
X95020000Y-59905000D02*
X95020000Y-59890000D01*
X95020000Y-62030000D02*
X95020000Y-62015000D01*
X95020000Y-59890000D02*
X90480000Y-59890000D01*
X95020000Y-62030000D02*
X90480000Y-62030000D01*
X93765000Y-120325000D02*
X93780000Y-120325000D01*
X91640000Y-120325000D02*
X91655000Y-120325000D01*
X93765000Y-124865000D02*
X93780000Y-124865000D01*
X91640000Y-124865000D02*
X91655000Y-124865000D01*
X93780000Y-124865000D02*
X93780000Y-120325000D01*
X91640000Y-124865000D02*
X91640000Y-120325000D01*
X166540000Y-71000000D02*
X148420000Y-71000000D01*
X166540000Y-106800000D02*
X166540000Y-71000000D01*
X148420000Y-106800000D02*
X166540000Y-106800000D01*
X148420000Y-71000000D02*
X148420000Y-106800000D01*
X163540000Y-71060000D02*
X158480000Y-71060000D01*
X163540000Y-106740000D02*
X163540000Y-71060000D01*
X151420000Y-106740000D02*
X163540000Y-106740000D01*
X151420000Y-71060000D02*
X151420000Y-106740000D01*
X156480000Y-71060000D02*
X151420000Y-71060000D01*
X158480000Y-71060000D02*
G75*
G02X156480000Y-71060000I-1000000J0D01*
G01*
D10*
X176290000Y-115335000D02*
X175790000Y-115835000D01*
X176290000Y-114535000D02*
X176290000Y-115335000D01*
X175790000Y-114035000D02*
X176290000Y-114535000D01*
X172190000Y-114035000D02*
X175790000Y-114035000D01*
X171690000Y-114535000D02*
X172190000Y-114035000D01*
X171690000Y-115335000D02*
X171690000Y-114535000D01*
X172190000Y-115835000D02*
X171690000Y-115335000D01*
X175790000Y-115835000D02*
X172190000Y-115835000D01*
D11*
X175510000Y-112245000D02*
X175510000Y-110005000D01*
X175270000Y-112245000D02*
X175270000Y-110005000D01*
X175390000Y-112245000D02*
X175390000Y-110005000D01*
X171220000Y-111125000D02*
X171870000Y-111125000D01*
X176760000Y-111125000D02*
X176110000Y-111125000D01*
X171870000Y-112245000D02*
X176110000Y-112245000D01*
X171870000Y-110005000D02*
X171870000Y-112245000D01*
X176110000Y-110005000D02*
X171870000Y-110005000D01*
X176110000Y-112245000D02*
X176110000Y-110005000D01*
X97860000Y-127565000D02*
X97860000Y-125165000D01*
X100260000Y-127565000D02*
X97860000Y-127565000D01*
X100260000Y-125165000D02*
X100260000Y-127565000D01*
X97860000Y-125165000D02*
X100260000Y-125165000D01*
X91440000Y-79680000D02*
X91440000Y-80630000D01*
X91440000Y-85420000D02*
X91440000Y-84470000D01*
X90520000Y-80630000D02*
X90520000Y-84470000D01*
X92360000Y-80630000D02*
X90520000Y-80630000D01*
X92360000Y-84470000D02*
X92360000Y-80630000D01*
X90520000Y-84470000D02*
X92360000Y-84470000D01*
X91440000Y-75260000D02*
X91440000Y-74310000D01*
X91440000Y-69520000D02*
X91440000Y-70470000D01*
X92360000Y-74310000D02*
X92360000Y-70470000D01*
X90520000Y-74310000D02*
X92360000Y-74310000D01*
X90520000Y-70470000D02*
X90520000Y-74310000D01*
X92360000Y-70470000D02*
X90520000Y-70470000D01*
X88900000Y-131140000D02*
X88900000Y-130190000D01*
X88900000Y-125400000D02*
X88900000Y-126350000D01*
X89820000Y-130190000D02*
X89820000Y-126350000D01*
X87980000Y-130190000D02*
X89820000Y-130190000D01*
X87980000Y-126350000D02*
X87980000Y-130190000D01*
X89820000Y-126350000D02*
X87980000Y-126350000D01*
X119510000Y-83185000D02*
X119510000Y-80645000D01*
X122810000Y-71255000D02*
X122810000Y-73515000D01*
X120530000Y-71255000D02*
X120530000Y-73115000D01*
X143630000Y-71255000D02*
X120530000Y-71255000D01*
X143630000Y-121855000D02*
X143630000Y-71255000D01*
X120530000Y-121855000D02*
X143630000Y-121855000D01*
X120530000Y-78015000D02*
X120530000Y-121855000D01*
X122160000Y-75565000D02*
G75*
G03X122160000Y-75565000I-900000J0D01*
G01*
X123810000Y-75565000D02*
G75*
G03X123810000Y-75565000I-2550000J0D01*
G01*
X90270000Y-92535000D02*
G75*
G03X89520000Y-91785000I-750000J0D01*
G01*
X89520000Y-112685000D02*
G75*
G03X90270000Y-111935000I0J750000D01*
G01*
X77370000Y-111935000D02*
G75*
G03X78120000Y-112685000I750000J0D01*
G01*
X77370000Y-91785000D02*
X77370000Y-111935000D01*
X78120000Y-112685000D02*
X89520000Y-112685000D01*
X90270000Y-111935000D02*
X90270000Y-92535000D01*
X89520000Y-91785000D02*
X77370000Y-91785000D01*
X78680000Y-81220000D02*
X80010000Y-81220000D01*
X78680000Y-82550000D02*
X78680000Y-81220000D01*
X78680000Y-83820000D02*
X81340000Y-83820000D01*
X81340000Y-83820000D02*
X81340000Y-88960000D01*
X78680000Y-83820000D02*
X78680000Y-88960000D01*
X78680000Y-88960000D02*
X81340000Y-88960000D01*
X194310000Y-88265000D02*
X195580000Y-88265000D01*
X194310000Y-89535000D02*
X194310000Y-88265000D01*
X196622929Y-105155000D02*
X197077071Y-105155000D01*
X196622929Y-104395000D02*
X197077071Y-104395000D01*
X199162929Y-105155000D02*
X199560000Y-105155000D01*
X199162929Y-104395000D02*
X199560000Y-104395000D01*
X208220000Y-105155000D02*
X202220000Y-105155000D01*
X208220000Y-104395000D02*
X208220000Y-105155000D01*
X202220000Y-104395000D02*
X208220000Y-104395000D01*
X199560000Y-103505000D02*
X202220000Y-103505000D01*
X196622929Y-102615000D02*
X197077071Y-102615000D01*
X196622929Y-101855000D02*
X197077071Y-101855000D01*
X199162929Y-102615000D02*
X199560000Y-102615000D01*
X199162929Y-101855000D02*
X199560000Y-101855000D01*
X208220000Y-102615000D02*
X202220000Y-102615000D01*
X208220000Y-101855000D02*
X208220000Y-102615000D01*
X202220000Y-101855000D02*
X208220000Y-101855000D01*
X199560000Y-100965000D02*
X202220000Y-100965000D01*
X196622929Y-100075000D02*
X197077071Y-100075000D01*
X196622929Y-99315000D02*
X197077071Y-99315000D01*
X199162929Y-100075000D02*
X199560000Y-100075000D01*
X199162929Y-99315000D02*
X199560000Y-99315000D01*
X208220000Y-100075000D02*
X202220000Y-100075000D01*
X208220000Y-99315000D02*
X208220000Y-100075000D01*
X202220000Y-99315000D02*
X208220000Y-99315000D01*
X199560000Y-98425000D02*
X202220000Y-98425000D01*
X196622929Y-97535000D02*
X197077071Y-97535000D01*
X196622929Y-96775000D02*
X197077071Y-96775000D01*
X199162929Y-97535000D02*
X199560000Y-97535000D01*
X199162929Y-96775000D02*
X199560000Y-96775000D01*
X208220000Y-97535000D02*
X202220000Y-97535000D01*
X208220000Y-96775000D02*
X208220000Y-97535000D01*
X202220000Y-96775000D02*
X208220000Y-96775000D01*
X199560000Y-95885000D02*
X202220000Y-95885000D01*
X196622929Y-94995000D02*
X197077071Y-94995000D01*
X196622929Y-94235000D02*
X197077071Y-94235000D01*
X199162929Y-94995000D02*
X199560000Y-94995000D01*
X199162929Y-94235000D02*
X199560000Y-94235000D01*
X208220000Y-94995000D02*
X202220000Y-94995000D01*
X208220000Y-94235000D02*
X208220000Y-94995000D01*
X202220000Y-94235000D02*
X208220000Y-94235000D01*
X199560000Y-93345000D02*
X202220000Y-93345000D01*
X196622929Y-92455000D02*
X197077071Y-92455000D01*
X196622929Y-91695000D02*
X197077071Y-91695000D01*
X199162929Y-92455000D02*
X199560000Y-92455000D01*
X199162929Y-91695000D02*
X199560000Y-91695000D01*
X208220000Y-92455000D02*
X202220000Y-92455000D01*
X208220000Y-91695000D02*
X208220000Y-92455000D01*
X202220000Y-91695000D02*
X208220000Y-91695000D01*
X199560000Y-90805000D02*
X202220000Y-90805000D01*
X196690000Y-89915000D02*
X197077071Y-89915000D01*
X196690000Y-89155000D02*
X197077071Y-89155000D01*
X199162929Y-89915000D02*
X199560000Y-89915000D01*
X199162929Y-89155000D02*
X199560000Y-89155000D01*
X202220000Y-89815000D02*
X208220000Y-89815000D01*
X202220000Y-89695000D02*
X208220000Y-89695000D01*
X202220000Y-89575000D02*
X208220000Y-89575000D01*
X202220000Y-89455000D02*
X208220000Y-89455000D01*
X202220000Y-89335000D02*
X208220000Y-89335000D01*
X202220000Y-89215000D02*
X208220000Y-89215000D01*
X208220000Y-89915000D02*
X202220000Y-89915000D01*
X208220000Y-89155000D02*
X208220000Y-89915000D01*
X202220000Y-89155000D02*
X208220000Y-89155000D01*
X202220000Y-88205000D02*
X199560000Y-88205000D01*
X202220000Y-106105000D02*
X202220000Y-88205000D01*
X199560000Y-106105000D02*
X202220000Y-106105000D01*
X199560000Y-88205000D02*
X199560000Y-106105000D01*
X194310000Y-55880000D02*
X195580000Y-55880000D01*
X194310000Y-57150000D02*
X194310000Y-55880000D01*
X196622929Y-72770000D02*
X197077071Y-72770000D01*
X196622929Y-72010000D02*
X197077071Y-72010000D01*
X199162929Y-72770000D02*
X199560000Y-72770000D01*
X199162929Y-72010000D02*
X199560000Y-72010000D01*
X208220000Y-72770000D02*
X202220000Y-72770000D01*
X208220000Y-72010000D02*
X208220000Y-72770000D01*
X202220000Y-72010000D02*
X208220000Y-72010000D01*
X199560000Y-71120000D02*
X202220000Y-71120000D01*
X196622929Y-70230000D02*
X197077071Y-70230000D01*
X196622929Y-69470000D02*
X197077071Y-69470000D01*
X199162929Y-70230000D02*
X199560000Y-70230000D01*
X199162929Y-69470000D02*
X199560000Y-69470000D01*
X208220000Y-70230000D02*
X202220000Y-70230000D01*
X208220000Y-69470000D02*
X208220000Y-70230000D01*
X202220000Y-69470000D02*
X208220000Y-69470000D01*
X199560000Y-68580000D02*
X202220000Y-68580000D01*
X196622929Y-67690000D02*
X197077071Y-67690000D01*
X196622929Y-66930000D02*
X197077071Y-66930000D01*
X199162929Y-67690000D02*
X199560000Y-67690000D01*
X199162929Y-66930000D02*
X199560000Y-66930000D01*
X208220000Y-67690000D02*
X202220000Y-67690000D01*
X208220000Y-66930000D02*
X208220000Y-67690000D01*
X202220000Y-66930000D02*
X208220000Y-66930000D01*
X199560000Y-66040000D02*
X202220000Y-66040000D01*
X196622929Y-65150000D02*
X197077071Y-65150000D01*
X196622929Y-64390000D02*
X197077071Y-64390000D01*
X199162929Y-65150000D02*
X199560000Y-65150000D01*
X199162929Y-64390000D02*
X199560000Y-64390000D01*
X208220000Y-65150000D02*
X202220000Y-65150000D01*
X208220000Y-64390000D02*
X208220000Y-65150000D01*
X202220000Y-64390000D02*
X208220000Y-64390000D01*
X199560000Y-63500000D02*
X202220000Y-63500000D01*
X196622929Y-62610000D02*
X197077071Y-62610000D01*
X196622929Y-61850000D02*
X197077071Y-61850000D01*
X199162929Y-62610000D02*
X199560000Y-62610000D01*
X199162929Y-61850000D02*
X199560000Y-61850000D01*
X208220000Y-62610000D02*
X202220000Y-62610000D01*
X208220000Y-61850000D02*
X208220000Y-62610000D01*
X202220000Y-61850000D02*
X208220000Y-61850000D01*
X199560000Y-60960000D02*
X202220000Y-60960000D01*
X196622929Y-60070000D02*
X197077071Y-60070000D01*
X196622929Y-59310000D02*
X197077071Y-59310000D01*
X199162929Y-60070000D02*
X199560000Y-60070000D01*
X199162929Y-59310000D02*
X199560000Y-59310000D01*
X208220000Y-60070000D02*
X202220000Y-60070000D01*
X208220000Y-59310000D02*
X208220000Y-60070000D01*
X202220000Y-59310000D02*
X208220000Y-59310000D01*
X199560000Y-58420000D02*
X202220000Y-58420000D01*
X196690000Y-57530000D02*
X197077071Y-57530000D01*
X196690000Y-56770000D02*
X197077071Y-56770000D01*
X199162929Y-57530000D02*
X199560000Y-57530000D01*
X199162929Y-56770000D02*
X199560000Y-56770000D01*
X202220000Y-57430000D02*
X208220000Y-57430000D01*
X202220000Y-57310000D02*
X208220000Y-57310000D01*
X202220000Y-57190000D02*
X208220000Y-57190000D01*
X202220000Y-57070000D02*
X208220000Y-57070000D01*
X202220000Y-56950000D02*
X208220000Y-56950000D01*
X202220000Y-56830000D02*
X208220000Y-56830000D01*
X208220000Y-57530000D02*
X202220000Y-57530000D01*
X208220000Y-56770000D02*
X208220000Y-57530000D01*
X202220000Y-56770000D02*
X208220000Y-56770000D01*
X202220000Y-55820000D02*
X199560000Y-55820000D01*
X202220000Y-73720000D02*
X202220000Y-55820000D01*
X199560000Y-73720000D02*
X202220000Y-73720000D01*
X199560000Y-55820000D02*
X199560000Y-73720000D01*
X89070000Y-59570000D02*
X78570000Y-59570000D01*
X89070000Y-77590000D02*
X89070000Y-59570000D01*
X78570000Y-77590000D02*
X89070000Y-77590000D01*
X78570000Y-59570000D02*
X78570000Y-77590000D01*
X86070000Y-59630000D02*
X84820000Y-59630000D01*
X86070000Y-77530000D02*
X86070000Y-59630000D01*
X81570000Y-77530000D02*
X86070000Y-77530000D01*
X81570000Y-59630000D02*
X81570000Y-77530000D01*
X82820000Y-59630000D02*
X81570000Y-59630000D01*
X84820000Y-59630000D02*
G75*
G02X82820000Y-59630000I-1000000J0D01*
G01*
X189400000Y-55760000D02*
X171280000Y-55760000D01*
X189400000Y-106800000D02*
X189400000Y-55760000D01*
X171280000Y-106800000D02*
X189400000Y-106800000D01*
X171280000Y-55760000D02*
X171280000Y-106800000D01*
X186400000Y-55820000D02*
X181340000Y-55820000D01*
X186400000Y-106740000D02*
X186400000Y-55820000D01*
X174280000Y-106740000D02*
X186400000Y-106740000D01*
X174280000Y-55820000D02*
X174280000Y-106740000D01*
X179340000Y-55820000D02*
X174280000Y-55820000D01*
X181340000Y-55820000D02*
G75*
G02X179340000Y-55820000I-1000000J0D01*
G01*
X115740000Y-71000000D02*
X97620000Y-71000000D01*
X115740000Y-122040000D02*
X115740000Y-71000000D01*
X97620000Y-122040000D02*
X115740000Y-122040000D01*
X97620000Y-71000000D02*
X97620000Y-122040000D01*
X112740000Y-71060000D02*
X107680000Y-71060000D01*
X112740000Y-121980000D02*
X112740000Y-71060000D01*
X100620000Y-121980000D02*
X112740000Y-121980000D01*
X100620000Y-71060000D02*
X100620000Y-121980000D01*
X105680000Y-71060000D02*
X100620000Y-71060000D01*
X107680000Y-71060000D02*
G75*
G02X105680000Y-71060000I-1000000J0D01*
G01*
X85490000Y-119205000D02*
X85490000Y-117705000D01*
X84240000Y-115205000D02*
X79740000Y-115205000D01*
X78490000Y-117705000D02*
X78490000Y-119205000D01*
X79740000Y-121705000D02*
X84240000Y-121705000D01*
D10*
X78406666Y-133862380D02*
X78406666Y-134576666D01*
X78359047Y-134719523D01*
X78263809Y-134814761D01*
X78120952Y-134862380D01*
X78025714Y-134862380D01*
X79311428Y-133862380D02*
X79120952Y-133862380D01*
X79025714Y-133910000D01*
X78978095Y-133957619D01*
X78882857Y-134100476D01*
X78835238Y-134290952D01*
X78835238Y-134671904D01*
X78882857Y-134767142D01*
X78930476Y-134814761D01*
X79025714Y-134862380D01*
X79216190Y-134862380D01*
X79311428Y-134814761D01*
X79359047Y-134767142D01*
X79406666Y-134671904D01*
X79406666Y-134433809D01*
X79359047Y-134338571D01*
X79311428Y-134290952D01*
X79216190Y-134243333D01*
X79025714Y-134243333D01*
X78930476Y-134290952D01*
X78882857Y-134338571D01*
X78835238Y-134433809D01*
X171467142Y-105536666D02*
X171514761Y-105584285D01*
X171562380Y-105727142D01*
X171562380Y-105822380D01*
X171514761Y-105965238D01*
X171419523Y-106060476D01*
X171324285Y-106108095D01*
X171133809Y-106155714D01*
X170990952Y-106155714D01*
X170800476Y-106108095D01*
X170705238Y-106060476D01*
X170610000Y-105965238D01*
X170562380Y-105822380D01*
X170562380Y-105727142D01*
X170610000Y-105584285D01*
X170657619Y-105536666D01*
X170562380Y-104679523D02*
X170562380Y-104870000D01*
X170610000Y-104965238D01*
X170657619Y-105012857D01*
X170800476Y-105108095D01*
X170990952Y-105155714D01*
X171371904Y-105155714D01*
X171467142Y-105108095D01*
X171514761Y-105060476D01*
X171562380Y-104965238D01*
X171562380Y-104774761D01*
X171514761Y-104679523D01*
X171467142Y-104631904D01*
X171371904Y-104584285D01*
X171133809Y-104584285D01*
X171038571Y-104631904D01*
X170990952Y-104679523D01*
X170943333Y-104774761D01*
X170943333Y-104965238D01*
X170990952Y-105060476D01*
X171038571Y-105108095D01*
X171133809Y-105155714D01*
X167067142Y-77676666D02*
X167114761Y-77724285D01*
X167162380Y-77867142D01*
X167162380Y-77962380D01*
X167114761Y-78105238D01*
X167019523Y-78200476D01*
X166924285Y-78248095D01*
X166733809Y-78295714D01*
X166590952Y-78295714D01*
X166400476Y-78248095D01*
X166305238Y-78200476D01*
X166210000Y-78105238D01*
X166162380Y-77962380D01*
X166162380Y-77867142D01*
X166210000Y-77724285D01*
X166257619Y-77676666D01*
X166162380Y-76771904D02*
X166162380Y-77248095D01*
X166638571Y-77295714D01*
X166590952Y-77248095D01*
X166543333Y-77152857D01*
X166543333Y-76914761D01*
X166590952Y-76819523D01*
X166638571Y-76771904D01*
X166733809Y-76724285D01*
X166971904Y-76724285D01*
X167067142Y-76771904D01*
X167114761Y-76819523D01*
X167162380Y-76914761D01*
X167162380Y-77152857D01*
X167114761Y-77248095D01*
X167067142Y-77295714D01*
X148607142Y-75056666D02*
X148654761Y-75104285D01*
X148702380Y-75247142D01*
X148702380Y-75342380D01*
X148654761Y-75485238D01*
X148559523Y-75580476D01*
X148464285Y-75628095D01*
X148273809Y-75675714D01*
X148130952Y-75675714D01*
X147940476Y-75628095D01*
X147845238Y-75580476D01*
X147750000Y-75485238D01*
X147702380Y-75342380D01*
X147702380Y-75247142D01*
X147750000Y-75104285D01*
X147797619Y-75056666D01*
X148035714Y-74199523D02*
X148702380Y-74199523D01*
X147654761Y-74437619D02*
X148369047Y-74675714D01*
X148369047Y-74056666D01*
X93138333Y-88327142D02*
X93090714Y-88374761D01*
X92947857Y-88422380D01*
X92852619Y-88422380D01*
X92709761Y-88374761D01*
X92614523Y-88279523D01*
X92566904Y-88184285D01*
X92519285Y-87993809D01*
X92519285Y-87850952D01*
X92566904Y-87660476D01*
X92614523Y-87565238D01*
X92709761Y-87470000D01*
X92852619Y-87422380D01*
X92947857Y-87422380D01*
X93090714Y-87470000D01*
X93138333Y-87517619D01*
X93471666Y-87422380D02*
X94090714Y-87422380D01*
X93757380Y-87803333D01*
X93900238Y-87803333D01*
X93995476Y-87850952D01*
X94043095Y-87898571D01*
X94090714Y-87993809D01*
X94090714Y-88231904D01*
X94043095Y-88327142D01*
X93995476Y-88374761D01*
X93900238Y-88422380D01*
X93614523Y-88422380D01*
X93519285Y-88374761D01*
X93471666Y-88327142D01*
X92583333Y-63517142D02*
X92535714Y-63564761D01*
X92392857Y-63612380D01*
X92297619Y-63612380D01*
X92154761Y-63564761D01*
X92059523Y-63469523D01*
X92011904Y-63374285D01*
X91964285Y-63183809D01*
X91964285Y-63040952D01*
X92011904Y-62850476D01*
X92059523Y-62755238D01*
X92154761Y-62660000D01*
X92297619Y-62612380D01*
X92392857Y-62612380D01*
X92535714Y-62660000D01*
X92583333Y-62707619D01*
X92964285Y-62707619D02*
X93011904Y-62660000D01*
X93107142Y-62612380D01*
X93345238Y-62612380D01*
X93440476Y-62660000D01*
X93488095Y-62707619D01*
X93535714Y-62802857D01*
X93535714Y-62898095D01*
X93488095Y-63040952D01*
X92916666Y-63612380D01*
X93535714Y-63612380D01*
X90867142Y-122761666D02*
X90914761Y-122809285D01*
X90962380Y-122952142D01*
X90962380Y-123047380D01*
X90914761Y-123190238D01*
X90819523Y-123285476D01*
X90724285Y-123333095D01*
X90533809Y-123380714D01*
X90390952Y-123380714D01*
X90200476Y-123333095D01*
X90105238Y-123285476D01*
X90010000Y-123190238D01*
X89962380Y-123047380D01*
X89962380Y-122952142D01*
X90010000Y-122809285D01*
X90057619Y-122761666D01*
X90962380Y-121809285D02*
X90962380Y-122380714D01*
X90962380Y-122095000D02*
X89962380Y-122095000D01*
X90105238Y-122190238D01*
X90200476Y-122285476D01*
X90248095Y-122380714D01*
X156718095Y-69512380D02*
X156718095Y-70321904D01*
X156765714Y-70417142D01*
X156813333Y-70464761D01*
X156908571Y-70512380D01*
X157099047Y-70512380D01*
X157194285Y-70464761D01*
X157241904Y-70417142D01*
X157289523Y-70321904D01*
X157289523Y-69512380D01*
X158241904Y-69512380D02*
X157765714Y-69512380D01*
X157718095Y-69988571D01*
X157765714Y-69940952D01*
X157860952Y-69893333D01*
X158099047Y-69893333D01*
X158194285Y-69940952D01*
X158241904Y-69988571D01*
X158289523Y-70083809D01*
X158289523Y-70321904D01*
X158241904Y-70417142D01*
X158194285Y-70464761D01*
X158099047Y-70512380D01*
X157860952Y-70512380D01*
X157765714Y-70464761D01*
X157718095Y-70417142D01*
X173126666Y-116387380D02*
X173126666Y-117101666D01*
X173079047Y-117244523D01*
X172983809Y-117339761D01*
X172840952Y-117387380D01*
X172745714Y-117387380D01*
X173602857Y-117387380D02*
X173602857Y-116387380D01*
X173983809Y-116387380D01*
X174079047Y-116435000D01*
X174126666Y-116482619D01*
X174174285Y-116577857D01*
X174174285Y-116720714D01*
X174126666Y-116815952D01*
X174079047Y-116863571D01*
X173983809Y-116911190D01*
X173602857Y-116911190D01*
X175126666Y-117387380D02*
X174555238Y-117387380D01*
X174840952Y-117387380D02*
X174840952Y-116387380D01*
X174745714Y-116530238D01*
X174650476Y-116625476D01*
X174555238Y-116673095D01*
X173251904Y-113697380D02*
X173251904Y-112697380D01*
X173490000Y-112697380D01*
X173632857Y-112745000D01*
X173728095Y-112840238D01*
X173775714Y-112935476D01*
X173823333Y-113125952D01*
X173823333Y-113268809D01*
X173775714Y-113459285D01*
X173728095Y-113554523D01*
X173632857Y-113649761D01*
X173490000Y-113697380D01*
X173251904Y-113697380D01*
X174775714Y-113697380D02*
X174204285Y-113697380D01*
X174490000Y-113697380D02*
X174490000Y-112697380D01*
X174394761Y-112840238D01*
X174299523Y-112935476D01*
X174204285Y-112983095D01*
X177538095Y-113377380D02*
X177538095Y-112377380D01*
X178109523Y-113377380D02*
X177680952Y-112805952D01*
X178109523Y-112377380D02*
X177538095Y-112948809D01*
X97798095Y-123819380D02*
X98369523Y-123819380D01*
X98083809Y-124819380D02*
X98083809Y-123819380D01*
X98702857Y-124819380D02*
X98702857Y-123819380D01*
X99083809Y-123819380D01*
X99179047Y-123867000D01*
X99226666Y-123914619D01*
X99274285Y-124009857D01*
X99274285Y-124152714D01*
X99226666Y-124247952D01*
X99179047Y-124295571D01*
X99083809Y-124343190D01*
X98702857Y-124343190D01*
X100226666Y-124819380D02*
X99655238Y-124819380D01*
X99940952Y-124819380D02*
X99940952Y-123819380D01*
X99845714Y-123962238D01*
X99750476Y-124057476D01*
X99655238Y-124105095D01*
X89972380Y-82716666D02*
X89496190Y-83050000D01*
X89972380Y-83288095D02*
X88972380Y-83288095D01*
X88972380Y-82907142D01*
X89020000Y-82811904D01*
X89067619Y-82764285D01*
X89162857Y-82716666D01*
X89305714Y-82716666D01*
X89400952Y-82764285D01*
X89448571Y-82811904D01*
X89496190Y-82907142D01*
X89496190Y-83288095D01*
X88972380Y-82383333D02*
X88972380Y-81764285D01*
X89353333Y-82097619D01*
X89353333Y-81954761D01*
X89400952Y-81859523D01*
X89448571Y-81811904D01*
X89543809Y-81764285D01*
X89781904Y-81764285D01*
X89877142Y-81811904D01*
X89924761Y-81859523D01*
X89972380Y-81954761D01*
X89972380Y-82240476D01*
X89924761Y-82335714D01*
X89877142Y-82383333D01*
X93812380Y-72556666D02*
X93336190Y-72890000D01*
X93812380Y-73128095D02*
X92812380Y-73128095D01*
X92812380Y-72747142D01*
X92860000Y-72651904D01*
X92907619Y-72604285D01*
X93002857Y-72556666D01*
X93145714Y-72556666D01*
X93240952Y-72604285D01*
X93288571Y-72651904D01*
X93336190Y-72747142D01*
X93336190Y-73128095D01*
X92907619Y-72175714D02*
X92860000Y-72128095D01*
X92812380Y-72032857D01*
X92812380Y-71794761D01*
X92860000Y-71699523D01*
X92907619Y-71651904D01*
X93002857Y-71604285D01*
X93098095Y-71604285D01*
X93240952Y-71651904D01*
X93812380Y-72223333D01*
X93812380Y-71604285D01*
X91272380Y-128436666D02*
X90796190Y-128770000D01*
X91272380Y-129008095D02*
X90272380Y-129008095D01*
X90272380Y-128627142D01*
X90320000Y-128531904D01*
X90367619Y-128484285D01*
X90462857Y-128436666D01*
X90605714Y-128436666D01*
X90700952Y-128484285D01*
X90748571Y-128531904D01*
X90796190Y-128627142D01*
X90796190Y-129008095D01*
X91272380Y-127484285D02*
X91272380Y-128055714D01*
X91272380Y-127770000D02*
X90272380Y-127770000D01*
X90415238Y-127865238D01*
X90510476Y-127960476D01*
X90558095Y-128055714D01*
X131318095Y-69807380D02*
X131318095Y-70616904D01*
X131365714Y-70712142D01*
X131413333Y-70759761D01*
X131508571Y-70807380D01*
X131699047Y-70807380D01*
X131794285Y-70759761D01*
X131841904Y-70712142D01*
X131889523Y-70616904D01*
X131889523Y-69807380D01*
X132270476Y-69807380D02*
X132889523Y-69807380D01*
X132556190Y-70188333D01*
X132699047Y-70188333D01*
X132794285Y-70235952D01*
X132841904Y-70283571D01*
X132889523Y-70378809D01*
X132889523Y-70616904D01*
X132841904Y-70712142D01*
X132794285Y-70759761D01*
X132699047Y-70807380D01*
X132413333Y-70807380D01*
X132318095Y-70759761D01*
X132270476Y-70712142D01*
X90722380Y-103044523D02*
X91722380Y-102377857D01*
X90722380Y-102377857D02*
X91722380Y-103044523D01*
X91722380Y-101473095D02*
X91722380Y-102044523D01*
X91722380Y-101758809D02*
X90722380Y-101758809D01*
X90865238Y-101854047D01*
X90960476Y-101949285D01*
X91008095Y-102044523D01*
X79676666Y-79672380D02*
X79676666Y-80386666D01*
X79629047Y-80529523D01*
X79533809Y-80624761D01*
X79390952Y-80672380D01*
X79295714Y-80672380D01*
X80057619Y-79672380D02*
X80676666Y-79672380D01*
X80343333Y-80053333D01*
X80486190Y-80053333D01*
X80581428Y-80100952D01*
X80629047Y-80148571D01*
X80676666Y-80243809D01*
X80676666Y-80481904D01*
X80629047Y-80577142D01*
X80581428Y-80624761D01*
X80486190Y-80672380D01*
X80200476Y-80672380D01*
X80105238Y-80624761D01*
X80057619Y-80577142D01*
X200901666Y-86717380D02*
X200901666Y-87431666D01*
X200854047Y-87574523D01*
X200758809Y-87669761D01*
X200615952Y-87717380D01*
X200520714Y-87717380D01*
X201330238Y-86812619D02*
X201377857Y-86765000D01*
X201473095Y-86717380D01*
X201711190Y-86717380D01*
X201806428Y-86765000D01*
X201854047Y-86812619D01*
X201901666Y-86907857D01*
X201901666Y-87003095D01*
X201854047Y-87145952D01*
X201282619Y-87717380D01*
X201901666Y-87717380D01*
X200901666Y-54332380D02*
X200901666Y-55046666D01*
X200854047Y-55189523D01*
X200758809Y-55284761D01*
X200615952Y-55332380D01*
X200520714Y-55332380D01*
X201901666Y-55332380D02*
X201330238Y-55332380D01*
X201615952Y-55332380D02*
X201615952Y-54332380D01*
X201520714Y-54475238D01*
X201425476Y-54570476D01*
X201330238Y-54618095D01*
X83058095Y-58082380D02*
X83058095Y-58891904D01*
X83105714Y-58987142D01*
X83153333Y-59034761D01*
X83248571Y-59082380D01*
X83439047Y-59082380D01*
X83534285Y-59034761D01*
X83581904Y-58987142D01*
X83629523Y-58891904D01*
X83629523Y-58082380D01*
X84534285Y-58415714D02*
X84534285Y-59082380D01*
X84296190Y-58034761D02*
X84058095Y-58749047D01*
X84677142Y-58749047D01*
X179578095Y-54272380D02*
X179578095Y-55081904D01*
X179625714Y-55177142D01*
X179673333Y-55224761D01*
X179768571Y-55272380D01*
X179959047Y-55272380D01*
X180054285Y-55224761D01*
X180101904Y-55177142D01*
X180149523Y-55081904D01*
X180149523Y-54272380D01*
X180578095Y-54367619D02*
X180625714Y-54320000D01*
X180720952Y-54272380D01*
X180959047Y-54272380D01*
X181054285Y-54320000D01*
X181101904Y-54367619D01*
X181149523Y-54462857D01*
X181149523Y-54558095D01*
X181101904Y-54700952D01*
X180530476Y-55272380D01*
X181149523Y-55272380D01*
X105918095Y-69512380D02*
X105918095Y-70321904D01*
X105965714Y-70417142D01*
X106013333Y-70464761D01*
X106108571Y-70512380D01*
X106299047Y-70512380D01*
X106394285Y-70464761D01*
X106441904Y-70417142D01*
X106489523Y-70321904D01*
X106489523Y-69512380D01*
X107489523Y-70512380D02*
X106918095Y-70512380D01*
X107203809Y-70512380D02*
X107203809Y-69512380D01*
X107108571Y-69655238D01*
X107013333Y-69750476D01*
X106918095Y-69798095D01*
X80656666Y-114609761D02*
X80799523Y-114657380D01*
X81037619Y-114657380D01*
X81132857Y-114609761D01*
X81180476Y-114562142D01*
X81228095Y-114466904D01*
X81228095Y-114371666D01*
X81180476Y-114276428D01*
X81132857Y-114228809D01*
X81037619Y-114181190D01*
X80847142Y-114133571D01*
X80751904Y-114085952D01*
X80704285Y-114038333D01*
X80656666Y-113943095D01*
X80656666Y-113847857D01*
X80704285Y-113752619D01*
X80751904Y-113705000D01*
X80847142Y-113657380D01*
X81085238Y-113657380D01*
X81228095Y-113705000D01*
X81561428Y-113657380D02*
X81799523Y-114657380D01*
X81990000Y-113943095D01*
X82180476Y-114657380D01*
X82418571Y-113657380D01*
X83323333Y-114657380D02*
X82751904Y-114657380D01*
X83037619Y-114657380D02*
X83037619Y-113657380D01*
X82942380Y-113800238D01*
X82847142Y-113895476D01*
X82751904Y-113943095D01*
M02*
