G04 #@! TF.GenerationSoftware,KiCad,Pcbnew,(5.1.5-0-10_14)*
G04 #@! TF.CreationDate,2020-11-20T10:26:45+01:00*
G04 #@! TF.ProjectId,6502,36353032-2e6b-4696-9361-645f70636258,rev?*
G04 #@! TF.SameCoordinates,Original*
G04 #@! TF.FileFunction,Copper,L1,Top*
G04 #@! TF.FilePolarity,Positive*
%FSLAX46Y46*%
G04 Gerber Fmt 4.6, Leading zero omitted, Abs format (unit mm)*
G04 Created by KiCad (PCBNEW (5.1.5-0-10_14)) date 2020-11-20 10:26:45*
%MOMM*%
%LPD*%
G04 APERTURE LIST*
%ADD10O,1.700000X1.700000*%
%ADD11R,1.700000X1.700000*%
%ADD12C,1.600000*%
%ADD13O,2.400000X1.600000*%
%ADD14R,2.400000X1.600000*%
%ADD15C,1.400000*%
%ADD16O,1.600000X1.600000*%
%ADD17R,1.600000X1.600000*%
%ADD18R,2.000000X2.000000*%
%ADD19O,1.400000X1.400000*%
%ADD20O,2.000000X1.440000*%
%ADD21R,2.000000X1.440000*%
%ADD22C,2.000000*%
%ADD23C,0.600000*%
%ADD24C,0.800000*%
%ADD25C,0.200000*%
%ADD26C,0.250000*%
G04 APERTURE END LIST*
D10*
X78740000Y-129540000D03*
D11*
X78740000Y-132080000D03*
D10*
X114300000Y-132080000D03*
X116840000Y-132080000D03*
X119380000Y-132080000D03*
X121920000Y-132080000D03*
X124460000Y-132080000D03*
X127000000Y-132080000D03*
X129540000Y-132080000D03*
D11*
X132080000Y-132080000D03*
D12*
X168910000Y-107870000D03*
X168910000Y-102870000D03*
X168910000Y-75010000D03*
X168910000Y-80010000D03*
X146050000Y-77390000D03*
X146050000Y-72390000D03*
X95805000Y-90170000D03*
X90805000Y-90170000D03*
X90250000Y-60960000D03*
X95250000Y-60960000D03*
X92710000Y-120095000D03*
X92710000Y-125095000D03*
D13*
X165100000Y-72390000D03*
X149860000Y-105410000D03*
X165100000Y-74930000D03*
X149860000Y-102870000D03*
X165100000Y-77470000D03*
X149860000Y-100330000D03*
X165100000Y-80010000D03*
X149860000Y-97790000D03*
X165100000Y-82550000D03*
X149860000Y-95250000D03*
X165100000Y-85090000D03*
X149860000Y-92710000D03*
X165100000Y-87630000D03*
X149860000Y-90170000D03*
X165100000Y-90170000D03*
X149860000Y-87630000D03*
X165100000Y-92710000D03*
X149860000Y-85090000D03*
X165100000Y-95250000D03*
X149860000Y-82550000D03*
X165100000Y-97790000D03*
X149860000Y-80010000D03*
X165100000Y-100330000D03*
X149860000Y-77470000D03*
X165100000Y-102870000D03*
X149860000Y-74930000D03*
X165100000Y-105410000D03*
D14*
X149860000Y-72390000D03*
D15*
X172720000Y-114935000D03*
X175260000Y-114935000D03*
D16*
X170180000Y-111125000D03*
D17*
X177800000Y-111125000D03*
D18*
X99060000Y-126365000D03*
D19*
X91440000Y-78740000D03*
D15*
X91440000Y-86360000D03*
D19*
X91440000Y-76200000D03*
D15*
X91440000Y-68580000D03*
D19*
X88900000Y-132080000D03*
D15*
X88900000Y-124460000D03*
D10*
X165100000Y-132080000D03*
X167640000Y-132080000D03*
X170180000Y-132080000D03*
X172720000Y-132080000D03*
X175260000Y-132080000D03*
X177800000Y-132080000D03*
X180340000Y-132080000D03*
D11*
X182880000Y-132080000D03*
D10*
X114300000Y-55880000D03*
X116840000Y-55880000D03*
X119380000Y-55880000D03*
X121920000Y-55880000D03*
X124460000Y-55880000D03*
X127000000Y-55880000D03*
X129540000Y-55880000D03*
X132080000Y-55880000D03*
X134620000Y-55880000D03*
X137160000Y-55880000D03*
X139700000Y-55880000D03*
X142240000Y-55880000D03*
X144780000Y-55880000D03*
X147320000Y-55880000D03*
X149860000Y-55880000D03*
D11*
X152400000Y-55880000D03*
D20*
X139700000Y-114935000D03*
X124460000Y-114935000D03*
X139700000Y-112395000D03*
X124460000Y-112395000D03*
X139700000Y-109855000D03*
X124460000Y-109855000D03*
X139700000Y-107315000D03*
X124460000Y-107315000D03*
X139700000Y-104775000D03*
X124460000Y-104775000D03*
X139700000Y-102235000D03*
X124460000Y-102235000D03*
X139700000Y-99695000D03*
X124460000Y-99695000D03*
X139700000Y-97155000D03*
X124460000Y-97155000D03*
X139700000Y-94615000D03*
X124460000Y-94615000D03*
X139700000Y-92075000D03*
X124460000Y-92075000D03*
X139700000Y-89535000D03*
X124460000Y-89535000D03*
X139700000Y-86995000D03*
X124460000Y-86995000D03*
X139700000Y-84455000D03*
X124460000Y-84455000D03*
X139700000Y-81915000D03*
D21*
X124460000Y-81915000D03*
D12*
X80010000Y-109855000D03*
X87630000Y-109855000D03*
X87630000Y-94615000D03*
D17*
X80010000Y-94615000D03*
D10*
X80010000Y-87630000D03*
X80010000Y-85090000D03*
D11*
X80010000Y-82550000D03*
D10*
X198120000Y-104775000D03*
X195580000Y-104775000D03*
X198120000Y-102235000D03*
X195580000Y-102235000D03*
X198120000Y-99695000D03*
X195580000Y-99695000D03*
X198120000Y-97155000D03*
X195580000Y-97155000D03*
X198120000Y-94615000D03*
X195580000Y-94615000D03*
X198120000Y-92075000D03*
X195580000Y-92075000D03*
X198120000Y-89535000D03*
D11*
X195580000Y-89535000D03*
D10*
X198120000Y-72390000D03*
X195580000Y-72390000D03*
X198120000Y-69850000D03*
X195580000Y-69850000D03*
X198120000Y-67310000D03*
X195580000Y-67310000D03*
X198120000Y-64770000D03*
X195580000Y-64770000D03*
X198120000Y-62230000D03*
X195580000Y-62230000D03*
X198120000Y-59690000D03*
X195580000Y-59690000D03*
X198120000Y-57150000D03*
D11*
X195580000Y-57150000D03*
D13*
X87630000Y-60960000D03*
X80010000Y-76200000D03*
X87630000Y-63500000D03*
X80010000Y-73660000D03*
X87630000Y-66040000D03*
X80010000Y-71120000D03*
X87630000Y-68580000D03*
X80010000Y-68580000D03*
X87630000Y-71120000D03*
X80010000Y-66040000D03*
X87630000Y-73660000D03*
X80010000Y-63500000D03*
X87630000Y-76200000D03*
D14*
X80010000Y-60960000D03*
D13*
X187960000Y-57150000D03*
X172720000Y-105410000D03*
X187960000Y-59690000D03*
X172720000Y-102870000D03*
X187960000Y-62230000D03*
X172720000Y-100330000D03*
X187960000Y-64770000D03*
X172720000Y-97790000D03*
X187960000Y-67310000D03*
X172720000Y-95250000D03*
X187960000Y-69850000D03*
X172720000Y-92710000D03*
X187960000Y-72390000D03*
X172720000Y-90170000D03*
X187960000Y-74930000D03*
X172720000Y-87630000D03*
X187960000Y-77470000D03*
X172720000Y-85090000D03*
X187960000Y-80010000D03*
X172720000Y-82550000D03*
X187960000Y-82550000D03*
X172720000Y-80010000D03*
X187960000Y-85090000D03*
X172720000Y-77470000D03*
X187960000Y-87630000D03*
X172720000Y-74930000D03*
X187960000Y-90170000D03*
X172720000Y-72390000D03*
X187960000Y-92710000D03*
X172720000Y-69850000D03*
X187960000Y-95250000D03*
X172720000Y-67310000D03*
X187960000Y-97790000D03*
X172720000Y-64770000D03*
X187960000Y-100330000D03*
X172720000Y-62230000D03*
X187960000Y-102870000D03*
X172720000Y-59690000D03*
X187960000Y-105410000D03*
D14*
X172720000Y-57150000D03*
D13*
X114300000Y-72390000D03*
X99060000Y-120650000D03*
X114300000Y-74930000D03*
X99060000Y-118110000D03*
X114300000Y-77470000D03*
X99060000Y-115570000D03*
X114300000Y-80010000D03*
X99060000Y-113030000D03*
X114300000Y-82550000D03*
X99060000Y-110490000D03*
X114300000Y-85090000D03*
X99060000Y-107950000D03*
X114300000Y-87630000D03*
X99060000Y-105410000D03*
X114300000Y-90170000D03*
X99060000Y-102870000D03*
X114300000Y-92710000D03*
X99060000Y-100330000D03*
X114300000Y-95250000D03*
X99060000Y-97790000D03*
X114300000Y-97790000D03*
X99060000Y-95250000D03*
X114300000Y-100330000D03*
X99060000Y-92710000D03*
X114300000Y-102870000D03*
X99060000Y-90170000D03*
X114300000Y-105410000D03*
X99060000Y-87630000D03*
X114300000Y-107950000D03*
X99060000Y-85090000D03*
X114300000Y-110490000D03*
X99060000Y-82550000D03*
X114300000Y-113030000D03*
X99060000Y-80010000D03*
X114300000Y-115570000D03*
X99060000Y-77470000D03*
X114300000Y-118110000D03*
X99060000Y-74930000D03*
X114300000Y-120650000D03*
D14*
X99060000Y-72390000D03*
D22*
X85240000Y-116205000D03*
X85240000Y-120705000D03*
X78740000Y-116205000D03*
X78740000Y-120705000D03*
D23*
X186055000Y-128270000D03*
X135890000Y-128270000D03*
X164465000Y-128270000D03*
X161290000Y-128270000D03*
X112395000Y-128270000D03*
X185420000Y-127635000D03*
X136525000Y-127635000D03*
X161925000Y-127635000D03*
X167005000Y-127635000D03*
X111760000Y-127635000D03*
X184785000Y-127000000D03*
X137160000Y-127000000D03*
X162560000Y-127000000D03*
X169545000Y-127000000D03*
X111125000Y-127000000D03*
X184150000Y-126365000D03*
X137795000Y-126365000D03*
X172085000Y-126365000D03*
X163195000Y-126365000D03*
X110490000Y-126365000D03*
X183515000Y-125730000D03*
X138430000Y-125730000D03*
X165100000Y-125730000D03*
X174625000Y-125730000D03*
X109855000Y-125730000D03*
X126365000Y-125095000D03*
X109220000Y-125095000D03*
X182880000Y-125095000D03*
X151765000Y-125095000D03*
X177165000Y-125095000D03*
X127000000Y-124460000D03*
X108585000Y-124460000D03*
X152400000Y-124460000D03*
X180975000Y-124460000D03*
X107950000Y-123825000D03*
X127635000Y-123825000D03*
X153035000Y-123825000D03*
X180340000Y-123825000D03*
X182245000Y-123825000D03*
D24*
X102870000Y-126365000D03*
D23*
X108585000Y-59690000D03*
X126365000Y-59690000D03*
X151765000Y-59690000D03*
X121920000Y-59690000D03*
X139700000Y-59055000D03*
X162560000Y-59055000D03*
X109220000Y-59055000D03*
X170180000Y-59055000D03*
X119380000Y-59055000D03*
X109855000Y-58420000D03*
X97155000Y-58420000D03*
X125095000Y-58420000D03*
X150495000Y-58420000D03*
X160020000Y-58420000D03*
X114300000Y-58420000D03*
X96520000Y-57785000D03*
X110490000Y-57785000D03*
X167005000Y-73660000D03*
X167005000Y-67945000D03*
X165100000Y-67945000D03*
X139700000Y-67945000D03*
X112395000Y-67945000D03*
X96520000Y-67945000D03*
X96520000Y-86360000D03*
X167005000Y-122555000D03*
X195580004Y-122555000D03*
X113030000Y-128905000D03*
X113030000Y-122555000D03*
X132080000Y-122555000D03*
X131445000Y-67310000D03*
X157480000Y-67310000D03*
X100965000Y-67310000D03*
X163195000Y-60960000D03*
X163195000Y-67310000D03*
X152400000Y-67310000D03*
X101600000Y-66675000D03*
X130810000Y-66675000D03*
X156845000Y-66675000D03*
X163830000Y-63500000D03*
X163830000Y-66675000D03*
X149860000Y-66675000D03*
X130175000Y-66040000D03*
X156210000Y-66040000D03*
X102235000Y-66040000D03*
X147320000Y-66040000D03*
X102870000Y-65405000D03*
X129540000Y-65405000D03*
X155575000Y-65405000D03*
X167640000Y-68580000D03*
X167640000Y-65405000D03*
X144780000Y-65405000D03*
X103505000Y-64770000D03*
X128905000Y-64770000D03*
X154940000Y-64770000D03*
X142240000Y-64770000D03*
X104140000Y-64135000D03*
X128270000Y-64135000D03*
X154305000Y-64135000D03*
X137795000Y-64135000D03*
X104775000Y-63500000D03*
X127635000Y-63500000D03*
X153670000Y-63500000D03*
X135255000Y-63500000D03*
X127000000Y-62865000D03*
X153035000Y-62865000D03*
X105410000Y-62865000D03*
X134620000Y-62865000D03*
X137160000Y-62230000D03*
X161925000Y-62230000D03*
X106045000Y-62230000D03*
X132080000Y-62230000D03*
X161290000Y-61595000D03*
X106680000Y-61595000D03*
X136525000Y-61595000D03*
X129540000Y-61595000D03*
X159385000Y-60960000D03*
X107315000Y-60960000D03*
X132715000Y-60960000D03*
X127000000Y-60960000D03*
X160655000Y-60325000D03*
X107950000Y-60325000D03*
X133350000Y-60325000D03*
X124460000Y-60325000D03*
X114300000Y-71120000D03*
X95885000Y-71120000D03*
X117475000Y-69850000D03*
X163195000Y-69850000D03*
X167640000Y-69850000D03*
X121920000Y-118745000D03*
X76835000Y-73025000D03*
X190500000Y-119380000D03*
X76835000Y-57150000D03*
X170815000Y-57150000D03*
X128270000Y-119380000D03*
X118110000Y-57150000D03*
X172720000Y-123190000D03*
X124460000Y-123190000D03*
X168910000Y-91440000D03*
X158115000Y-91440000D03*
X158115000Y-68580000D03*
X158115000Y-128905000D03*
X116840000Y-128905000D03*
X158750000Y-69215000D03*
X94615000Y-70485000D03*
X133350000Y-70485000D03*
D25*
X186055000Y-94615000D02*
X187960000Y-92710000D01*
X186055000Y-128270000D02*
X186055000Y-94615000D01*
X135890000Y-128270000D02*
X135890000Y-108585000D01*
X135890000Y-108585000D02*
X139700000Y-104775000D01*
X161290000Y-99060000D02*
X165100000Y-95250000D01*
X161290000Y-128270000D02*
X161290000Y-99060000D01*
X113030000Y-107950000D02*
X114300000Y-107950000D01*
X112395000Y-108585000D02*
X113030000Y-107950000D01*
X112395000Y-128270000D02*
X112395000Y-108585000D01*
X164465000Y-128270000D02*
X164465000Y-132080000D01*
X185420000Y-92710000D02*
X187960000Y-90170000D01*
X185420000Y-127635000D02*
X185420000Y-92710000D01*
X136525000Y-110490000D02*
X139700000Y-107315000D01*
X136525000Y-127635000D02*
X136525000Y-110490000D01*
X161925000Y-100965000D02*
X165100000Y-97790000D01*
X161925000Y-127635000D02*
X161925000Y-100965000D01*
X113665000Y-105410000D02*
X114300000Y-105410000D01*
X111760000Y-107315000D02*
X113665000Y-105410000D01*
X111760000Y-127635000D02*
X111760000Y-107315000D01*
X167005000Y-131445000D02*
X167640000Y-132080000D01*
X167005000Y-127635000D02*
X167005000Y-131445000D01*
X167005000Y-131445000D02*
X167005000Y-132080000D01*
X184785000Y-90805000D02*
X187960000Y-87630000D01*
X184785000Y-127000000D02*
X184785000Y-90805000D01*
X137160000Y-112395000D02*
X139700000Y-109855000D01*
X137160000Y-127000000D02*
X137160000Y-112395000D01*
X162560000Y-127000000D02*
X162560000Y-102870000D01*
X162560000Y-102870000D02*
X165100000Y-100330000D01*
X111125000Y-106045000D02*
X114300000Y-102870000D01*
X111125000Y-127000000D02*
X111125000Y-106045000D01*
X169545000Y-130810000D02*
X169545000Y-131445000D01*
X169545000Y-131445000D02*
X170180000Y-132080000D01*
X169545000Y-127000000D02*
X169545000Y-130810000D01*
X169545000Y-130810000D02*
X169545000Y-132080000D01*
X184150000Y-88900000D02*
X187960000Y-85090000D01*
X184150000Y-126365000D02*
X184150000Y-88900000D01*
X137795000Y-114300000D02*
X139700000Y-112395000D01*
X137795000Y-126365000D02*
X137795000Y-114300000D01*
X163195000Y-104775000D02*
X165100000Y-102870000D01*
X163195000Y-126365000D02*
X163195000Y-104775000D01*
X110490000Y-102870000D02*
X113030000Y-100330000D01*
X110490000Y-126365000D02*
X110490000Y-102870000D01*
X113030000Y-100330000D02*
X114300000Y-100330000D01*
X172085000Y-131445000D02*
X172720000Y-132080000D01*
X172085000Y-130810000D02*
X172085000Y-131445000D01*
X172085000Y-126365000D02*
X172085000Y-130810000D01*
X172085000Y-130810000D02*
X172085000Y-132080000D01*
X183515000Y-125730000D02*
X183515000Y-86995000D01*
X183515000Y-86995000D02*
X187960000Y-82550000D01*
X138430000Y-116205000D02*
X139700000Y-114935000D01*
X138430000Y-125730000D02*
X138430000Y-116205000D01*
X165100000Y-105410000D02*
X165100000Y-125730000D01*
X109855000Y-102235000D02*
X114300000Y-97790000D01*
X109855000Y-125730000D02*
X109855000Y-102235000D01*
X174625000Y-130810000D02*
X174625000Y-131445000D01*
X174625000Y-131445000D02*
X175260000Y-132080000D01*
X174625000Y-125730000D02*
X174625000Y-130810000D01*
X174625000Y-130810000D02*
X174625000Y-132080000D01*
X125730000Y-113665000D02*
X124460000Y-112395000D01*
X126365000Y-114300000D02*
X125730000Y-113665000D01*
X126365000Y-125095000D02*
X126365000Y-114300000D01*
X113665000Y-95250000D02*
X114300000Y-95250000D01*
X109220000Y-99695000D02*
X113665000Y-95250000D01*
X109220000Y-125095000D02*
X109220000Y-99695000D01*
X182880000Y-85090000D02*
X187960000Y-80010000D01*
X182880000Y-125095000D02*
X182880000Y-85090000D01*
X151765000Y-104775000D02*
X149860000Y-102870000D01*
X151765000Y-125095000D02*
X151765000Y-104775000D01*
X177165000Y-131445000D02*
X177800000Y-132080000D01*
X177165000Y-130810000D02*
X177165000Y-131445000D01*
X177165000Y-125095000D02*
X177165000Y-130810000D01*
X177165000Y-130810000D02*
X177165000Y-132080000D01*
X127000000Y-112395000D02*
X124460000Y-109855000D01*
X127000000Y-124460000D02*
X127000000Y-112395000D01*
X108585000Y-98425000D02*
X114300000Y-92710000D01*
X108585000Y-124460000D02*
X108585000Y-98425000D01*
X152400000Y-102870000D02*
X149860000Y-100330000D01*
X152400000Y-124460000D02*
X152400000Y-102870000D01*
X180975000Y-84455000D02*
X187960000Y-77470000D01*
X180975000Y-124460000D02*
X180975000Y-84455000D01*
X180975000Y-131445000D02*
X180340000Y-132080000D01*
X180975000Y-124460000D02*
X180975000Y-131445000D01*
X107950000Y-123825000D02*
X107950000Y-96520000D01*
X107950000Y-96520000D02*
X114300000Y-90170000D01*
X127635000Y-110490000D02*
X124460000Y-107315000D01*
X127635000Y-123825000D02*
X127635000Y-110490000D01*
X151260000Y-97790000D02*
X149860000Y-97790000D01*
X153035000Y-123825000D02*
X153035000Y-99565000D01*
X153035000Y-99565000D02*
X151260000Y-97790000D01*
X186560000Y-74930000D02*
X187960000Y-74930000D01*
X180340000Y-81150000D02*
X186560000Y-74930000D01*
X180340000Y-123825000D02*
X180340000Y-81150000D01*
X182245000Y-131445000D02*
X182880000Y-132080000D01*
X182245000Y-130810000D02*
X182245000Y-131445000D01*
X182245000Y-123825000D02*
X182245000Y-130810000D01*
X182245000Y-130810000D02*
X182245000Y-132080000D01*
D26*
X99060000Y-126365000D02*
X102870000Y-126365000D01*
D25*
X198120000Y-89535000D02*
X198120000Y-74930000D01*
X198120000Y-74930000D02*
X199390000Y-73660000D01*
X199390000Y-58420000D02*
X198120000Y-57150000D01*
X199390000Y-73660000D02*
X199390000Y-58420000D01*
X126365000Y-59690000D02*
X108585000Y-59690000D01*
X134620000Y-59690000D02*
X126365000Y-59690000D01*
X151765000Y-59690000D02*
X134620000Y-59690000D01*
X121920000Y-59690000D02*
X121285000Y-59690000D01*
X119380000Y-59055000D02*
X139700000Y-59055000D01*
X139700000Y-59055000D02*
X155575000Y-59055000D01*
X155575000Y-59055000D02*
X162560000Y-59055000D01*
X109220000Y-59055000D02*
X119380000Y-59055000D01*
X170180000Y-59055000D02*
X162560000Y-59055000D01*
X109855000Y-58420000D02*
X97155000Y-58420000D01*
X148590000Y-58420000D02*
X133985000Y-58420000D01*
X133985000Y-58420000D02*
X125095000Y-58420000D01*
X150495000Y-58420000D02*
X148590000Y-58420000D01*
X160020000Y-58420000D02*
X150495000Y-58420000D01*
X114300000Y-58420000D02*
X109855000Y-58420000D01*
X125095000Y-58420000D02*
X114300000Y-58420000D01*
X96520000Y-57785000D02*
X110490000Y-57785000D01*
X100330000Y-67945000D02*
X164465000Y-67945000D01*
X164465000Y-67945000D02*
X165100000Y-67945000D01*
X198120000Y-72390000D02*
X195580000Y-72390000D01*
X195580000Y-72390000D02*
X194310000Y-73660000D01*
X194310000Y-73660000D02*
X167005000Y-73660000D01*
X167005000Y-67945000D02*
X165100000Y-67945000D01*
X92429949Y-68580000D02*
X93064949Y-67945000D01*
X91440000Y-68580000D02*
X92429949Y-68580000D01*
X90250000Y-60960000D02*
X89535000Y-60960000D01*
X89535000Y-60960000D02*
X87630000Y-60960000D01*
X139700000Y-67945000D02*
X140335000Y-67945000D01*
X99060000Y-85090000D02*
X99695000Y-85090000D01*
X99695000Y-85090000D02*
X100965000Y-86360000D01*
X100965000Y-88265000D02*
X99060000Y-90170000D01*
X100965000Y-86360000D02*
X100965000Y-88265000D01*
X172720000Y-105410000D02*
X167005000Y-105410000D01*
X167640000Y-78740000D02*
X168910000Y-80010000D01*
X167640000Y-74930000D02*
X167640000Y-78740000D01*
X165100000Y-72390000D02*
X167640000Y-74930000D01*
X95805000Y-90170000D02*
X99060000Y-90170000D01*
X198120000Y-104775000D02*
X195580000Y-104775000D01*
D26*
X168910000Y-102870000D02*
X167005000Y-102870000D01*
X167005000Y-102870000D02*
X167005000Y-105410000D01*
D25*
X93064949Y-67945000D02*
X96520000Y-67945000D01*
X96520000Y-67945000D02*
X100330000Y-67945000D01*
X90250000Y-60960000D02*
X93345000Y-60960000D01*
X93345000Y-60960000D02*
X93345000Y-67945000D01*
X91440000Y-86360000D02*
X96520000Y-86360000D01*
X167005000Y-105410000D02*
X167005000Y-122555000D01*
X195580000Y-122554996D02*
X195580000Y-104775000D01*
X195580004Y-122555000D02*
X195580000Y-122554996D01*
X113030000Y-128905000D02*
X113030000Y-122555000D01*
X132080000Y-132080000D02*
X132080000Y-122555000D01*
X168910000Y-102870000D02*
X168910000Y-95885000D01*
X168910000Y-95885000D02*
X170180000Y-94615000D01*
X170180000Y-81280000D02*
X168910000Y-80010000D01*
X170180000Y-94615000D02*
X170180000Y-81280000D01*
X152400000Y-67310000D02*
X157480000Y-67310000D01*
X152400000Y-67310000D02*
X131445000Y-67310000D01*
X100965000Y-67310000D02*
X131445000Y-67310000D01*
X187960000Y-62230000D02*
X175895000Y-62230000D01*
X175895000Y-62230000D02*
X174625000Y-60960000D01*
X174625000Y-60960000D02*
X163195000Y-60960000D01*
X157480000Y-67310000D02*
X163195000Y-67310000D01*
X116840000Y-66675000D02*
X101600000Y-66675000D01*
X148590000Y-66675000D02*
X116840000Y-66675000D01*
X148590000Y-66675000D02*
X156845000Y-66675000D01*
X187960000Y-64770000D02*
X175895000Y-64770000D01*
X175895000Y-64770000D02*
X174625000Y-63500000D01*
X174625000Y-63500000D02*
X163830000Y-63500000D01*
X163830000Y-66675000D02*
X156845000Y-66675000D01*
X102235000Y-66040000D02*
X130175000Y-66040000D01*
X130175000Y-66040000D02*
X147320000Y-66040000D01*
X147320000Y-66040000D02*
X156210000Y-66040000D01*
X187960000Y-67310000D02*
X175895000Y-67310000D01*
X174625000Y-66040000D02*
X156210000Y-66040000D01*
X175895000Y-67310000D02*
X174625000Y-66040000D01*
X121920000Y-65405000D02*
X137795000Y-65405000D01*
X102870000Y-65405000D02*
X121920000Y-65405000D01*
X155575000Y-65405000D02*
X137795000Y-65405000D01*
X187960000Y-69850000D02*
X175895000Y-69850000D01*
X175895000Y-69850000D02*
X174625000Y-68580000D01*
X174625000Y-68580000D02*
X167640000Y-68580000D01*
X167640000Y-65405000D02*
X155575000Y-65405000D01*
X135890000Y-64770000D02*
X103505000Y-64770000D01*
X135890000Y-64770000D02*
X154940000Y-64770000D01*
X104140000Y-64135000D02*
X128270000Y-64135000D01*
X128270000Y-64135000D02*
X135255000Y-64135000D01*
X137795000Y-64135000D02*
X154305000Y-64135000D01*
X135255000Y-64135000D02*
X137795000Y-64135000D01*
X104775000Y-63500000D02*
X127635000Y-63500000D01*
X127635000Y-63500000D02*
X134620000Y-63500000D01*
X134620000Y-63500000D02*
X153670000Y-63500000D01*
X153035000Y-62865000D02*
X133985000Y-62865000D01*
X133985000Y-62865000D02*
X127000000Y-62865000D01*
X127000000Y-62865000D02*
X105410000Y-62865000D01*
X137160000Y-62230000D02*
X132080000Y-62230000D01*
X161925000Y-62230000D02*
X137160000Y-62230000D01*
X106045000Y-62230000D02*
X132080000Y-62230000D01*
X161290000Y-61595000D02*
X129540000Y-61595000D01*
X106680000Y-61595000D02*
X129540000Y-61595000D01*
X136525000Y-60960000D02*
X127000000Y-60960000D01*
X159385000Y-60960000D02*
X136525000Y-60960000D01*
X107315000Y-60960000D02*
X127000000Y-60960000D01*
X160655000Y-60325000D02*
X124460000Y-60325000D01*
X124460000Y-60325000D02*
X107950000Y-60325000D01*
X187960000Y-72390000D02*
X186560000Y-72390000D01*
X185290000Y-71120000D02*
X114724264Y-71120000D01*
X186560000Y-72390000D02*
X185290000Y-71120000D01*
X114724264Y-71120000D02*
X114300000Y-71120000D01*
X119380000Y-132080000D02*
X119380000Y-133985000D01*
X119380000Y-133985000D02*
X87630000Y-133985000D01*
X87630000Y-125730000D02*
X88900000Y-124460000D01*
X87630000Y-133985000D02*
X87630000Y-125730000D01*
X88900000Y-123905000D02*
X92710000Y-120095000D01*
X88900000Y-124460000D02*
X88900000Y-123905000D01*
X89130000Y-120095000D02*
X85240000Y-116205000D01*
X92710000Y-120095000D02*
X89130000Y-120095000D01*
X114300000Y-71120000D02*
X95885000Y-71120000D01*
X149225000Y-69850000D02*
X117475000Y-69850000D01*
X163195000Y-69850000D02*
X149225000Y-69850000D01*
X167640000Y-69850000D02*
X163195000Y-69850000D01*
X121920000Y-132080000D02*
X121920000Y-118745000D01*
X194730001Y-69000001D02*
X195580000Y-69850000D01*
X194429999Y-63219999D02*
X194429999Y-68699999D01*
X188360000Y-57150000D02*
X194429999Y-63219999D01*
X187960000Y-57150000D02*
X188360000Y-57150000D01*
X194429999Y-68699999D02*
X194730001Y-69000001D01*
X197270001Y-70699999D02*
X198120000Y-69850000D01*
X196969999Y-71000001D02*
X197270001Y-70699999D01*
X194029988Y-70001990D02*
X195027999Y-71000001D01*
X189360000Y-59690000D02*
X194029988Y-64359988D01*
X187960000Y-59690000D02*
X189360000Y-59690000D01*
X195027999Y-71000001D02*
X196969999Y-71000001D01*
X194029988Y-64359988D02*
X194029988Y-70001990D01*
X78740000Y-85090000D02*
X80010000Y-85090000D01*
X76835000Y-83185000D02*
X78740000Y-85090000D01*
X76835000Y-73025000D02*
X76835000Y-83185000D01*
X190500000Y-119380000D02*
X190500000Y-96390000D01*
X190500000Y-96390000D02*
X189360000Y-95250000D01*
X189360000Y-95250000D02*
X187960000Y-95250000D01*
X127000000Y-132080000D02*
X127000000Y-125730000D01*
X128270000Y-124460000D02*
X128270000Y-119380000D01*
X127000000Y-125730000D02*
X128270000Y-124460000D01*
X118110000Y-57150000D02*
X170815000Y-57150000D01*
X76835000Y-57150000D02*
X118110000Y-57150000D01*
X97790000Y-78740000D02*
X99060000Y-80010000D01*
X91440000Y-78740000D02*
X97790000Y-78740000D01*
X172720000Y-114935000D02*
X172720000Y-123190000D01*
X124460000Y-132080000D02*
X124460000Y-123190000D01*
X85389990Y-69680010D02*
X92244990Y-69680010D01*
X81410000Y-73660000D02*
X85389990Y-69680010D01*
X80010000Y-73660000D02*
X81410000Y-73660000D01*
X92244990Y-69680010D02*
X93345000Y-68580000D01*
X93345000Y-68580000D02*
X158115000Y-68580000D01*
X168910000Y-91440000D02*
X158115000Y-91440000D01*
X158115000Y-91440000D02*
X158115000Y-128905000D01*
X116840000Y-132080000D02*
X116840000Y-128905000D01*
X89030000Y-76200000D02*
X92710000Y-72520000D01*
X87630000Y-76200000D02*
X89030000Y-76200000D01*
X92710000Y-72520000D02*
X92710000Y-70485000D01*
X92710000Y-70485000D02*
X93980000Y-69215000D01*
X93980000Y-69215000D02*
X158750000Y-69215000D01*
X94615000Y-70485000D02*
X133350000Y-70485000D01*
X97790000Y-76200000D02*
X99060000Y-74930000D01*
X91440000Y-76200000D02*
X97790000Y-76200000D01*
M02*
